<svg width="20" height="20" viewBox="0 0 16 16" fill="none" xmlns="http://www.w3.org/2000/svg">
<path fill-rule="evenodd" clip-rule="evenodd" d="M2.83331 8C2.83331 7.72386 3.05717 7.5 3.33331 7.5H12.6666C12.9428 7.5 13.1666 7.72386 13.1666 8C13.1666 8.27614 12.9428 8.5 12.6666 8.5H3.33331C3.05717 8.5 2.83331 8.27614 2.83331 8Z" fill="#333333"/>
<path fill-rule="evenodd" clip-rule="evenodd" d="M8.35353 2.97945C8.54879 3.17472 8.54879 3.4913 8.35353 3.68656L4.04042 7.99967L8.35353 12.3128C8.54879 12.508 8.54879 12.8246 8.35353 13.0199C8.15827 13.2152 7.84169 13.2152 7.64643 13.0199L2.97976 8.35323C2.7845 8.15797 2.7845 7.84138 2.97976 7.64612L7.64643 2.97945C7.84169 2.78419 8.15827 2.78419 8.35353 2.97945Z" fill="#333333"/>
</svg>
