<svg xmlns="http://www.w3.org/2000/svg" xmlns:xlink="http://www.w3.org/1999/xlink" width="16" height="16" fill="none" xmlns:v="https://vecta.io/nano"><g fill-rule="evenodd" fill="#222"><path d="M3.333 1.834c-.46 0-.833.373-.833.833v10.667c0 .46.373.833.833.833h8c.46 0 .833-.373.833-.833V2.667c0-.46-.373-.833-.833-.833h-8zM1.5 2.667c0-1.013.821-1.833 1.833-1.833h8c1.013 0 1.833.821 1.833 1.833v10.667c0 1.012-.821 1.833-1.833 1.833h-8c-1.013 0-1.833-.821-1.833-1.833V2.667z"/><use xlink:href="#B"/><use xlink:href="#B" y="4"/><use xlink:href="#B" y="6.667"/><path d="M14.667 2.834a.5.5 0 0 1 .5.5v10c0 1.012-.821 1.833-1.833 1.833h-2a.5.5 0 1 1 0-1h2c.46 0 .833-.373.833-.833v-10a.5.5 0 0 1 .5-.5z"/></g><defs ><path id="B" d="M4.167 4.667a.5.5 0 0 1 .5-.5H10a.5.5 0 1 1 0 1H4.667a.5.5 0 0 1-.5-.5z"/></defs></svg>