<svg xmlns="http://www.w3.org/2000/svg" width="20" height="16" fill="none"  xmlns:v="https://vecta.io/nano"><g clip-path="url(#D)"><mask id="A" mask-type="alpha" maskUnits="userSpaceOnUse" x="0" y="0" width="20" height="16"><path fill="#fff" d="M0 .501h20v15H0z"/></mask><g mask="url(#A)"><path fill-rule="evenodd" d="M0 .501v15h20v-15H0z" fill="#c51918"/><mask id="B" mask-type="alpha" maskUnits="userSpaceOnUse" x="0" y="0" width="20" height="16"><path fill-rule="evenodd" d="M0 .501v15h20v-15H0z" fill="#fff"/></mask><g mask="url(#B)"><path fill-rule="evenodd" d="M6 .501h3v6h11v3H9v6H6v-6H0v-3h6v-6z" fill="#f7fcff"/></g></g><path fill="url(#C)" style="mix-blend-mode:overlay" d="M0 .501h20v15H0z"/></g><path d="M1.5 1.501h17v-2h-17v2zm17.5.5v12h2v-12h-2zm-.5 12.5h-17v2h17v-2zm-17.5-.5v-12h-2v12h2zm.5.5a.5.5 0 0 1-.5-.5h-2a2.5 2.5 0 0 0 2.5 2.5v-2zm17.5-.5a.5.5 0 0 1-.5.5v2a2.5 2.5 0 0 0 2.5-2.5h-2zm-.5-12.5a.5.5 0 0 1 .5.5h2a2.5 2.5 0 0 0-2.5-2.5v2zm-17-2a2.5 2.5 0 0 0-2.5 2.5h2a.5.5 0 0 1 .5-.5v-2z" fill="#000" fill-opacity=".1" style="mix-blend-mode:multiply"/><defs><linearGradient id="C" x1="10" y1=".501" x2="10" y2="15.501" gradientUnits="userSpaceOnUse"><stop stop-color="#fff" stop-opacity=".7"/><stop offset="1" stop-opacity=".3"/></linearGradient><clipPath id="D"><path d="M0 2.001a1.5 1.5 0 0 1 1.5-1.5h17a1.5 1.5 0 0 1 1.5 1.5v12a1.5 1.5 0 0 1-1.5 1.5h-17a1.5 1.5 0 0 1-1.5-1.5v-12z" fill="#fff"/></clipPath></defs></svg>