<svg xmlns="http://www.w3.org/2000/svg" width="16" height="16" fill="#222"  fill-rule="evenodd" xmlns:v="https://vecta.io/nano"><path d="M8.834 8a.5.5 0 0 1 .5-.5h3.333a.5.5 0 1 1 0 1H9.834v2.333h2.417a.5.5 0 1 1 0 1H9.334a.5.5 0 0 1-.5-.5V8zm2.5-5.166a.5.5 0 0 1 .5.5v1.333a.5.5 0 1 1-1 0V3.334a.5.5 0 0 1 .5-.5z"/><path d="M7.802 2.463c-.066-.06-.167-.057-.23.006L1.687 8.354a.5.5 0 1 1-.707-.707l5.885-5.885c.44-.44 1.147-.457 1.608-.04l6.53 5.908a.5.5 0 0 1-.671.742l-6.53-5.908z"/><path d="M.833 8a.5.5 0 0 1 .5-.5h2a.5.5 0 1 1 0 1h-2a.5.5 0 0 1-.5-.5zm11.334 0a.5.5 0 0 1 .5-.5h2a.5.5 0 1 1 0 1h-2a.5.5 0 0 1-.5-.5z"/><path d="M3.334 7.5a.5.5 0 0 1 .5.5v5.333c0 .092.075.167.167.167h8c.092 0 .167-.075.167-.167V8a.5.5 0 1 1 1 0v5.333c0 .644-.522 1.167-1.167 1.167H4c-.644 0-1.167-.522-1.167-1.167V8a.5.5 0 0 1 .5-.5z"/></svg>