<svg xmlns="http://www.w3.org/2000/svg" xmlns:xlink="http://www.w3.org/1999/xlink" width="360" height="123" fill="none" xmlns:v="https://vecta.io/nano"><path d="M0 112l179.5-1.1H360V13H0v99z" fill="url(#A)"/><path d="M204.9 54.177c2.425.627 3.883 3.102 3.255 5.528s-3.1 3.884-5.527 3.255-3.884-3.102-3.255-5.528 3.1-3.883 5.527-3.256z" fill="#f9b8c0"/><path d="M142.83 82.9c9.484 20.384 33.696 29.22 54.08 19.737h0c20.383-9.485 29.22-33.698 19.735-54.082s-33.697-29.22-54.08-19.736-29.22 33.697-19.735 54.08z" fill="#fff" stroke="#d61229" stroke-width="4"/><g fill="#d61229"><path d="M191.39 54.608v.002c.807.807.808 2.115.001 2.922l-19.866 19.862c-.807.807-2.115.807-2.92 0s-.806-2.114 0-2.92L188.47 54.61c.806-.807 2.114-.807 2.92-.001z"/><path d="M191.39 77.395c-.806.807-2.114.807-2.92 0l-19.863-19.87c-.807-.807-.807-2.115 0-2.92s2.114-.807 2.92 0l19.863 19.87c.807.807.807 2.115 0 2.92z"/></g><g fill="#f9b8c0"><path d="M135.9 2.102h0c.135.134.135.353 0 .487l-3.31 3.31c-.135.134-.353.134-.487 0s-.134-.352 0-.487l3.31-3.31c.134-.134.352-.134.487 0z"/><path d="M135.9 5.9c-.135.134-.353.134-.487 0l-3.31-3.312c-.135-.134-.135-.352 0-.487s.352-.134.487 0l3.31 3.312c.134.134.134.352 0 .487z"/><use xlink:href="#B"/><use xlink:href="#C"/><use xlink:href="#B" x="-26" y="-4"/><use xlink:href="#C" x="-26" y="-4"/><use xlink:href="#B" x="-27" y="38"/><use xlink:href="#D"/><path d="M210.82.18h.001c.235.235.235.617 0 .852l-5.794 5.792a.6.6 0 1 1-.851-.852L209.97.18a.6.6 0 0 1 .851 0z"/><path d="M210.82 6.823c-.235.235-.617.235-.852 0l-5.793-5.794c-.235-.235-.235-.617 0-.852s.617-.235.852 0l5.793 5.794c.235.235.235.617 0 .852z"/><use xlink:href="#B" x="-149" y="38"/><use xlink:href="#D" x="-122"/><path d="M76.9 51.102h0c.135.135.135.353 0 .487l-3.31 3.31c-.134.134-.352.134-.487 0s-.135-.352 0-.487l3.31-3.31c.134-.135.352-.135.487 0z"/><path d="M76.9 54.9c-.135.134-.352.134-.487 0l-3.3-3.312c-.134-.134-.134-.352 0-.487s.352-.135.487 0l3.3 3.312c.134.135.134.353 0 .487zm28.872-20.67h.001c.303.303.303.793 0 1.096l-7.45 7.45c-.303.303-.793.303-1.095 0s-.303-.793 0-1.096l7.45-7.45c.302-.303.793-.303 1.095 0z"/><path d="M105.772 42.774c-.303.303-.793.303-1.096 0l-7.45-7.452c-.302-.303-.302-.793 0-1.095s.793-.303 1.096 0l7.45 7.452c.303.303.303.793 0 1.095z"/></g><defs><radialGradient id="A" cx="0" cy="0" r="1" gradientUnits="userSpaceOnUse" gradientTransform="translate(180 62.5) rotate(-90) scale(49.5 180)"><stop stop-color="#f3d4d4"/><stop offset="1" stop-color="#fbfbfb" stop-opacity="0"/></radialGradient><path id="B" d="M258.9 43.102h0c.135.135.135.353 0 .487l-3.31 3.31c-.135.134-.353.134-.487 0s-.134-.352 0-.487l3.31-3.31c.134-.135.352-.135.487 0z"/><path id="C" d="M258.9 46.9c-.135.134-.353.134-.487 0l-3.31-3.312c-.135-.134-.135-.352 0-.487s.352-.135.487 0l3.31 3.312c.134.135.134.353 0 .487z"/><path id="D" d="M231.9 84.9c-.135.134-.353.134-.487 0l-3.31-3.312c-.135-.135-.135-.352 0-.487s.352-.135.487 0l3.31 3.312c.134.135.134.352 0 .487z"/></defs></svg>