<svg width="16" height="17" viewBox="0 0 16 17" fill="none" xmlns="http://www.w3.org/2000/svg">
<path fill-rule="evenodd" clip-rule="evenodd" d="M4.5 3.83301C4.5 4.10915 4.27614 4.33301 4 4.33301H2C1.72386 4.33301 1.5 4.10915 1.5 3.83301C1.5 3.55687 1.72386 3.33301 2 3.33301H4C4.27614 3.33301 4.5 3.55687 4.5 3.83301Z" fill="#222222"/>
<path fill-rule="evenodd" clip-rule="evenodd" d="M5.33333 3C4.8731 3 4.5 3.3731 4.5 3.83333C4.5 4.29357 4.8731 4.66667 5.33333 4.66667C5.79357 4.66667 6.16667 4.29357 6.16667 3.83333C6.16667 3.3731 5.79357 3 5.33333 3ZM3.5 3.83333C3.5 2.82081 4.32081 2 5.33333 2C6.34586 2 7.16667 2.82081 7.16667 3.83333C7.16667 4.84586 6.34586 5.66667 5.33333 5.66667C4.32081 5.66667 3.5 4.84586 3.5 3.83333Z" fill="#222222"/>
<path fill-rule="evenodd" clip-rule="evenodd" d="M10.6673 7.66699C10.2071 7.66699 9.83398 8.04009 9.83398 8.50033C9.83398 8.96056 10.2071 9.33366 10.6673 9.33366C11.1276 9.33366 11.5007 8.96056 11.5007 8.50033C11.5007 8.04009 11.1276 7.66699 10.6673 7.66699ZM8.83398 8.50033C8.83398 7.4878 9.6548 6.66699 10.6673 6.66699C11.6798 6.66699 12.5007 7.4878 12.5007 8.50033C12.5007 9.51285 11.6798 10.3337 10.6673 10.3337C9.6548 10.3337 8.83398 9.51285 8.83398 8.50033Z" fill="#222222"/>
<path fill-rule="evenodd" clip-rule="evenodd" d="M5.33333 12.333C4.8731 12.333 4.5 12.7061 4.5 13.1663C4.5 13.6266 4.8731 13.9997 5.33333 13.9997C5.79357 13.9997 6.16667 13.6266 6.16667 13.1663C6.16667 12.7061 5.79357 12.333 5.33333 12.333ZM3.5 13.1663C3.5 12.1538 4.32081 11.333 5.33333 11.333C6.34586 11.333 7.16667 12.1538 7.16667 13.1663C7.16667 14.1789 6.34586 14.9997 5.33333 14.9997C4.32081 14.9997 3.5 14.1789 3.5 13.1663Z" fill="#222222"/>
<path fill-rule="evenodd" clip-rule="evenodd" d="M14.5 3.83301C14.5 4.10915 14.2761 4.33301 14 4.33301L7.33333 4.33301C7.05719 4.33301 6.83333 4.10915 6.83333 3.83301C6.83333 3.55687 7.05719 3.33301 7.33333 3.33301L14 3.33301C14.2761 3.33301 14.5 3.55687 14.5 3.83301Z" fill="#222222"/>
<path fill-rule="evenodd" clip-rule="evenodd" d="M9.16602 8.5C9.16602 8.77614 8.94216 9 8.66602 9H1.99935C1.72321 9 1.49935 8.77614 1.49935 8.5C1.49935 8.22386 1.72321 8 1.99935 8H8.66602C8.94216 8 9.16602 8.22386 9.16602 8.5Z" fill="#222222"/>
<path fill-rule="evenodd" clip-rule="evenodd" d="M14.5 8.5C14.5 8.77614 14.2761 9 14 9L12 9C11.7239 9 11.5 8.77614 11.5 8.5C11.5 8.22386 11.7239 8 12 8L14 8C14.2761 8 14.5 8.22386 14.5 8.5Z" fill="#222222"/>
<path fill-rule="evenodd" clip-rule="evenodd" d="M4.5 13.167C4.5 13.4431 4.27614 13.667 4 13.667H2C1.72386 13.667 1.5 13.4431 1.5 13.167C1.5 12.8908 1.72386 12.667 2 12.667H4C4.27614 12.667 4.5 12.8908 4.5 13.167Z" fill="#222222"/>
<path fill-rule="evenodd" clip-rule="evenodd" d="M14.5 13.167C14.5 13.4431 14.2761 13.667 14 13.667H7.33333C7.05719 13.667 6.83333 13.4431 6.83333 13.167C6.83333 12.8908 7.05719 12.667 7.33333 12.667H14C14.2761 12.667 14.5 12.8908 14.5 13.167Z" fill="#222222"/>
</svg>
