<svg width="21" height="20" viewBox="0 0 21 20" fill="none" xmlns="http://www.w3.org/2000/svg">
<path fill-rule="evenodd" clip-rule="evenodd" d="M6.125 4.16699C6.125 4.51217 5.84518 4.79199 5.5 4.79199H3C2.65482 4.79199 2.375 4.51217 2.375 4.16699C2.375 3.82181 2.65482 3.54199 3 3.54199H5.5C5.84518 3.54199 6.125 3.82181 6.125 4.16699Z" fill="#FFFFFF"/>
<path fill-rule="evenodd" clip-rule="evenodd" d="M7.16667 3.125C6.59137 3.125 6.125 3.59137 6.125 4.16667C6.125 4.74196 6.59137 5.20833 7.16667 5.20833C7.74196 5.20833 8.20833 4.74196 8.20833 4.16667C8.20833 3.59137 7.74196 3.125 7.16667 3.125ZM4.875 4.16667C4.875 2.90101 5.90101 1.875 7.16667 1.875C8.43232 1.875 9.45833 2.90101 9.45833 4.16667C9.45833 5.43232 8.43232 6.45833 7.16667 6.45833C5.90101 6.45833 4.875 5.43232 4.875 4.16667Z" fill="#FFFFFF"/>
<path fill-rule="evenodd" clip-rule="evenodd" d="M13.8327 8.95801C13.2574 8.95801 12.791 9.42438 12.791 9.99967C12.791 10.575 13.2574 11.0413 13.8327 11.0413C14.408 11.0413 14.8743 10.575 14.8743 9.99967C14.8743 9.42438 14.408 8.95801 13.8327 8.95801ZM11.541 9.99967C11.541 8.73402 12.567 7.70801 13.8327 7.70801C15.0983 7.70801 16.1243 8.73402 16.1243 9.99967C16.1243 11.2653 15.0983 12.2913 13.8327 12.2913C12.567 12.2913 11.541 11.2653 11.541 9.99967Z" fill="#FFFFFF"/>
<path fill-rule="evenodd" clip-rule="evenodd" d="M7.16667 14.792C6.59137 14.792 6.125 15.2584 6.125 15.8337C6.125 16.409 6.59137 16.8753 7.16667 16.8753C7.74196 16.8753 8.20833 16.409 8.20833 15.8337C8.20833 15.2584 7.74196 14.792 7.16667 14.792ZM4.875 15.8337C4.875 14.568 5.90101 13.542 7.16667 13.542C8.43232 13.542 9.45833 14.568 9.45833 15.8337C9.45833 17.0993 8.43232 18.1253 7.16667 18.1253C5.90101 18.1253 4.875 17.0993 4.875 15.8337Z" fill="#FFFFFF"/>
<path fill-rule="evenodd" clip-rule="evenodd" d="M18.625 4.16699C18.625 4.51217 18.3452 4.79199 18 4.79199L9.66667 4.79199C9.32149 4.79199 9.04167 4.51217 9.04167 4.16699C9.04167 3.82181 9.32149 3.54199 9.66667 3.54199L18 3.54199C18.3452 3.54199 18.625 3.82181 18.625 4.16699Z" fill="#FFFFFF"/>
<path fill-rule="evenodd" clip-rule="evenodd" d="M11.959 10C11.959 10.3452 11.6792 10.625 11.334 10.625H3.00065C2.65547 10.625 2.37565 10.3452 2.37565 10C2.37565 9.65482 2.65547 9.375 3.00065 9.375H11.334C11.6792 9.375 11.959 9.65482 11.959 10Z" fill="#FFFFFF"/>
<path fill-rule="evenodd" clip-rule="evenodd" d="M18.625 10C18.625 10.3452 18.3452 10.625 18 10.625L15.5 10.625C15.1548 10.625 14.875 10.3452 14.875 10C14.875 9.65482 15.1548 9.375 15.5 9.375L18 9.375C18.3452 9.375 18.625 9.65482 18.625 10Z" fill="#FFFFFF"/>
<path fill-rule="evenodd" clip-rule="evenodd" d="M6.125 15.833C6.125 16.1782 5.84518 16.458 5.5 16.458H3C2.65482 16.458 2.375 16.1782 2.375 15.833C2.375 15.4878 2.65482 15.208 3 15.208H5.5C5.84518 15.208 6.125 15.4878 6.125 15.833Z" fill="#FFFFFF"/>
<path fill-rule="evenodd" clip-rule="evenodd" d="M18.625 15.833C18.625 16.1782 18.3452 16.458 18 16.458H9.66667C9.32149 16.458 9.04167 16.1782 9.04167 15.833C9.04167 15.4878 9.32149 15.208 9.66667 15.208H18C18.3452 15.208 18.625 15.4878 18.625 15.833Z" fill="#FFFFFF"/>
</svg>
