<svg xmlns="http://www.w3.org/2000/svg" width="16" height="16" fill="#1f58ea" fill-rule="evenodd" xmlns:v="https://vecta.io/nano"><path d="M2.737 6.565C3.421 5.467 4.436 4.5 5.667 4.5a.5.5 0 1 1 0 1c-.692 0-1.445.573-2.08 1.593-.618.992-1.023 2.259-1.08 3.324-.015.286-.127.576-.348.798l-.276.276c-.031.031-.049.074-.049.118V12c0 .092.075.167.167.167h12c.092 0 .167-.075.167-.167v-.39c0-.044-.018-.087-.049-.118l-.276-.276c-.222-.222-.328-.507-.353-.779-.072-.807-.485-2.081-1.15-3.149C11.657 6.193 10.831 5.5 10 5.5a.5.5 0 1 1 0-1c1.383 0 2.47 1.106 3.188 2.26.735 1.18 1.209 2.603 1.297 3.588.007.081.036.132.064.161l.276.276c.219.219.342.516.342.825V12c0 .644-.522 1.167-1.167 1.167H2c-.644 0-1.167-.522-1.167-1.167v-.39c0-.309.123-.606.342-.825l.276-.276c.029-.029.053-.077.057-.144.066-1.245.529-2.674 1.229-3.8z"/><path d="M1.5 10.667a.5.5 0 0 1 .5-.5h12a.5.5 0 1 1 0 1H2a.5.5 0 0 1-.5-.5zm5.168-6.834c-.093 0-.168.076-.168.167v3.417a.5.5 0 1 1-1 0V4a1.17 1.17 0 0 1 1.168-1.167h2.663A1.17 1.17 0 0 1 10.5 4v3.417a.5.5 0 1 1-1 0V4c0-.09-.075-.167-.169-.167H6.668z"/></svg>