<svg width="16" height="17" viewBox="0 0 16 17" fill="none" xmlns="http://www.w3.org/2000/svg">
<g id="home-wt">
<path id="Vector (Stroke)" fill-rule="evenodd" clip-rule="evenodd" d="M9.1546 3.13579C8.86333 2.92544 8.47004 2.92544 8.17878 3.13579L3.51211 6.50617C3.29518 6.66283 3.16669 6.91414 3.16669 7.18173V8.49998C3.16669 8.77612 2.94283 8.99998 2.66669 8.99998C2.39054 8.99998 2.16669 8.77612 2.16669 8.49998V7.18173C2.16669 6.59304 2.44938 6.04016 2.92662 5.69549L7.59329 2.32512C8.23407 1.86233 9.09931 1.86233 9.74009 2.32512L14.4068 5.69549C14.884 6.04016 15.1667 6.59304 15.1667 7.18173V13.1666C15.1667 13.6529 14.9735 14.1192 14.6297 14.463C14.2859 14.8068 13.8196 15 13.3334 15H8.66669C8.39054 15 8.16669 14.7761 8.16669 14.5C8.16669 14.2238 8.39054 14 8.66669 14H13.3334C13.5544 14 13.7663 13.9122 13.9226 13.7559C14.0789 13.5996 14.1667 13.3877 14.1667 13.1666V7.18173C14.1667 6.91414 14.0382 6.66283 13.8213 6.50617L9.1546 3.13579Z" fill="#D61229"/>
<path id="Vector (Stroke)_2" fill-rule="evenodd" clip-rule="evenodd" d="M9.01013 8.80328C9.2108 8.99298 9.2197 9.30943 9.03 9.51011L3.98833 14.8434C3.89388 14.9433 3.76247 15 3.62498 15C3.4875 15 3.35608 14.9433 3.26163 14.8434L0.969965 12.4192C0.780267 12.2185 0.789164 11.9021 0.989836 11.7124C1.19051 11.5227 1.50697 11.5316 1.69666 11.7322L3.62498 13.7721L8.3033 8.82315C8.493 8.62248 8.80945 8.61358 9.01013 8.80328Z" fill="#D61229"/>
</g>
</svg>
