<svg width="11" height="10" viewBox="0 0 11 10" fill="none" xmlns="http://www.w3.org/2000/svg">
<path d="M4.00223 0.320007C3.3976 0.320007 2.87584 0.792273 2.75614 1.44735L2.67941 1.88001H1.57143C0.702846 1.88001 0 2.57774 0 3.44001V8.12001C0 8.98227 0.702846 9.68001 1.57143 9.68001H9.42857C10.2972 9.68001 11 8.98227 11 8.12001V3.44001C11 2.57774 10.2972 1.88001 9.42857 1.88001H8.32059L8.24079 1.44735C8.12416 0.792273 7.6024 0.320007 6.99777 0.320007H4.00223ZM4.00223 1.10001H6.99777C7.21875 1.10001 7.41825 1.30415 7.46735 1.58751L7.54715 2.02016L7.66378 2.66001H9.42857C9.86133 2.66001 10.2143 3.0104 10.2143 3.44001V8.12001C10.2143 8.54962 9.86133 8.90001 9.42857 8.90001H1.57143C1.13867 8.90001 0.785714 8.54962 0.785714 8.12001V3.44001C0.785714 3.0104 1.13867 2.66001 1.57143 2.66001H3.33622L3.45285 2.02016L3.52958 1.58751C3.58175 1.30415 3.78125 1.10001 4.00223 1.10001ZM5.5 3.44001C4.19866 3.44001 3.14286 4.48509 3.14286 5.77087C3.14286 7.05665 4.19866 8.10173 5.5 8.10173C6.80134 8.10173 7.85714 7.05665 7.85714 5.77087C7.85714 4.48509 6.80134 3.44001 5.5 3.44001ZM5.5 4.22001C6.36551 4.22001 7.07143 4.91469 7.07143 5.77087C7.07143 6.62704 6.36551 7.32173 5.5 7.32173C4.63449 7.32173 3.92857 6.62704 3.92857 5.77087C3.92857 4.91469 4.63449 4.22001 5.5 4.22001Z" fill="white"/>
</svg>
