<svg xmlns="http://www.w3.org/2000/svg" width="16" height="16" fill="#222"  fill-rule="evenodd" xmlns:v="https://vecta.io/nano"><path d="M3.333 1.834c-.092 0-.167.075-.167.167v11.333c0 .092.075.167.167.167h6c.092 0 .167-.075.167-.167V2c0-.092-.075-.167-.167-.167h-6zM2.167 2c0-.644.522-1.167 1.167-1.167h6C9.978.833 10.5 1.356 10.5 2v11.333c0 .644-.522 1.167-1.167 1.167h-6c-.644 0-1.167-.522-1.167-1.167V2z"/><path d="M9.558 5.099a.5.5 0 0 1 .676-.207l4.313 2.288a1.17 1.17 0 0 1 .62 1.031v5.123c0 .644-.522 1.167-1.167 1.167H9.334a.5.5 0 1 1 0-1H14c.092 0 .167-.075.167-.167V8.21c0-.062-.034-.118-.088-.147L9.766 5.775a.5.5 0 0 1-.207-.676zm-6.724.235a.5.5 0 0 1 .5-.5H4a.5.5 0 1 1 0 1h-.667a.5.5 0 0 1-.5-.5zM.833 8.667a.5.5 0 0 1 .5-.5h4c1.013 0 1.833.821 1.833 1.833v4a.5.5 0 1 1-1 0v-4c0-.46-.373-.833-.833-.833h-4a.5.5 0 0 1-.5-.5z"/></svg>