<svg xmlns="http://www.w3.org/2000/svg" xmlns:xlink="http://www.w3.org/1999/xlink" width="20" height="16" fill="none" xmlns:v="https://vecta.io/nano"><style><![CDATA[.B{fill-rule:evenodd}.C{fill:#ffd83d}]]></style><g clip-path="url(#E)"><mask id="A" mask-type="alpha" maskUnits="userSpaceOnUse" x="0" y="0" width="20" height="16"><path fill="#fff" d="M0 .501h20v15H0z"/></mask><g mask="url(#A)"><path d="M0 .501v15h20v-15H0z" fill="#e31d1c" class="B"/><mask id="B" mask-type="alpha" maskUnits="userSpaceOnUse" x="0" y="0" width="20" height="16"><path d="M0 .501v15h20v-15H0z" fill="#fff" class="B"/></mask><g mask="url(#B)"><path d="M0 .501v7.5h20v-7.5H0z" fill="#2e42a5" class="B"/><path d="M2.999 7.409s.754.469 2.502.469 2.675-.469 2.675-.469-1.371-.797-2.596-.797-2.581.797-2.581.797z" fill="#000" class="B"/><path d="M3.044 4.715l-.216.126.072.124h5.53l.055-.175-.238-.075.238.075h0v-.001l.001-.004.004-.013.013-.047.04-.166c.029-.138.061-.33.07-.544.017-.413-.049-.979-.476-1.35-.439-.381-.99-.315-1.432-.205l-.452.13-.19.057c-.201.059-.357.094-.477.094s-.255-.032-.427-.086L5 2.603l-.405-.125c-.425-.112-.928-.157-1.484.158a1.14 1.14 0 0 0-.549.662c-.079.252-.068.512-.028.734a2.66 2.66 0 0 0 .176.567l.081.172.026.049.008.014.002.004.001.001h0 0c0 0 0 0 .216-.126z" stroke="#000" stroke-width=".5" class="C"/><path d="M2.502 4.955l-.117-.221-.193.102.876 2.406.237-.07.038-.011.147-.039.529-.119c.44-.087 1.023-.173 1.603-.173s1.151.086 1.58.172l.513.119.141.039.036.011.009.003h.002 0l.225.069.9-2.407-.195-.103-.117.221.116-.221h-.001l-.001-.001-.016-.008-.042-.02-.157-.066a5.37 5.37 0 0 0-.607-.194c-.536-.14-1.334-.277-2.4-.277s-1.864.137-2.4.277a5.37 5.37 0 0 0-.607.194l-.157.066-.042.02-.018.009.116.221zM5.546 3.26c.42 0 .67-.405.67-.778s-.25-.778-.67-.778-.67.405-.67.778.25.778.67.778z" stroke="#000" stroke-width=".5" class="C"/><mask id="C" maskUnits="userSpaceOnUse" x="4.073" y="-.499" width="3" height="4" fill="#000"><path fill="#fff" d="M4.073-.499h3v4h-3z"/><use xlink:href="#F" class="B"/></mask><use xlink:href="#F" class="B C"/><path d="M5.389.501v-.5h-.536l.038.535.499-.035zm.315 0l.499.035.037-.535h-.536v.5zm-.275.577l-.067.495.609.083-.043-.613-.499.035zm-.356-.048l.067-.495-.567-.077v.573h.5zm0 .396h-.5v.574l.568-.078-.068-.495zm.361-.05l.499.025.031-.603-.598.082.068.495zm-.046.908l-.499-.025-.027.525h.526v-.5zm.315 0v.5h.526l-.027-.526-.499.026zm-.047-.91l.07-.495-.601-.085.031.606.499-.026zm.362.051l-.07.495.57.081v-.576h-.5zm0-.396h.5V.452l-.571.082.071.495zm-.355.051l-.499-.035-.043.617.613-.088-.071-.495zm-.275-.079h.315v-1h-.315v1zm.539.042L5.887.466l-.998.07.041.577.998-.07zm-.922.482l.356.048.135-.991-.356-.048-.135.991zm.567-.099v-.396h-1v.396h1zM5.366.88l-.361.05.136.991.361-.05L5.366.88zm.522 1.429l.046-.908-.999-.051-.046.908.999.051zm-.184-.525h-.315v1h.315v-1zM5.158 1.4l.047.91.999-.051-.047-.91-.999.051zM6.089.93L5.727.879l-.14.99.362.051.14-.99zm-.57.099v.396h1v-.396h-1zm.216.546l.355-.051-.142-.99-.355.051.142.99zM5.205.466l-.04.579.998.069.04-.579-.998-.069z" fill="#000" mask="url(#C)"/></g></g><path fill="url(#D)" style="mix-blend-mode:overlay" d="M0 .501h20v15H0z"/></g><path d="M1.5 1.501h17v-2h-17v2zm17.5.5v12h2v-12h-2zm-.5 12.5h-17v2h17v-2zm-17.5-.5v-12h-2v12h2zm.5.5a.5.5 0 0 1-.5-.5h-2a2.5 2.5 0 0 0 2.5 2.5v-2zm17.5-.5a.5.5 0 0 1-.5.5v2a2.5 2.5 0 0 0 2.5-2.5h-2zm-.5-12.5a.5.5 0 0 1 .5.5h2a2.5 2.5 0 0 0-2.5-2.5v2zm-17-2a2.5 2.5 0 0 0-2.5 2.5h2a.5.5 0 0 1 .5-.5v-2z" fill="#000" fill-opacity=".1" style="mix-blend-mode:multiply"/><defs><linearGradient id="D" x1="10" y1=".501" x2="10" y2="15.501" gradientUnits="userSpaceOnUse"><stop stop-color="#fff" stop-opacity=".7"/><stop offset="1" stop-opacity=".3"/></linearGradient><clipPath id="E"><path d="M0 2.001a1.5 1.5 0 0 1 1.5-1.5h17a1.5 1.5 0 0 1 1.5 1.5v12a1.5 1.5 0 0 1-1.5 1.5h-17a1.5 1.5 0 0 1-1.5-1.5v-12z" fill="#fff"/></clipPath><path id="F" d="M5.704.501h-.315l.041.577-.356-.048v.396l.361-.05-.046.908h.315l-.047-.91.362.051v-.396l-.355.051.04-.579z"/></defs></svg>