<svg xmlns="http://www.w3.org/2000/svg" xmlns:xlink="http://www.w3.org/1999/xlink" width="17" height="16" fill="none" xmlns:v="https://vecta.io/nano"><g fill-rule="evenodd"><g fill="#333"><path d="M3.205 1.37A1.83 1.83 0 0 1 4.501.833h8c1.012 0 1.833.821 1.833 1.833v10.667a1.83 1.83 0 0 1-1.833 1.833h-8a1.83 1.83 0 0 1-1.296-.537c-.343-.344-.537-.81-.537-1.296V2.667a1.83 1.83 0 0 1 .537-1.296zm1.296.463c-.221 0-.433.088-.589.244s-.244.368-.244.589v10.667c0 .221.088.433.244.589s.368.244.589.244h8c.221 0 .433-.088.589-.244s.244-.368.244-.589V2.667c0-.46-.373-.833-.833-.833h-8zM8 8a.5.5 0 0 1 .5-.5h2.667a.5.5 0 1 1 0 1H8.5A.5.5 0 0 1 8 8z"/><use xlink:href="#B"/></g><g fill="#222"><path d="M8 5.334a.5.5 0 0 1 .5-.5h2.667a.5.5 0 1 1 0 1H8.5a.5.5 0 0 1-.5-.5z"/><use xlink:href="#B" y="-2.666"/><path d="M8 10.667a.5.5 0 0 1 .5-.5h2.667a.5.5 0 1 1 0 1H8.5a.5.5 0 0 1-.5-.5z"/><use xlink:href="#B" y="2.667"/></g></g><defs ><path id="B" d="M5.332 8a.5.5 0 0 1 .5-.5h.007a.5.5 0 1 1 0 1h-.007a.5.5 0 0 1-.5-.5z"/></defs></svg>