<svg xmlns="http://www.w3.org/2000/svg" width="125" height="20" fill="#d61229"  xmlns:v="https://vecta.io/nano"><path d="M16.071 13.802H5.409c.094.892.327 1.557.691 1.993.516.628 1.185.943 2.013.943a2.92 2.92 0 0 0 1.488-.41c.288-.172.597-.477.926-.914l5.241.504c-.802 1.456-1.769 2.499-2.9 3.133S10.11 20 7.995 20c-1.837 0-3.283-.272-4.339-.813-1.05-.541-1.926-1.4-2.618-2.579S0 14.043 0 12.451C0 10.183.695 8.35 2.083 6.95S5.39 4.849 7.838 4.849c1.987 0 3.555.313 4.703.941s2.024 1.538 2.625 2.731.902 2.743.902 4.655v.626h.004zm-5.409-2.662c-.107-1.074-.383-1.843-.832-2.308s-1.039-.695-1.769-.695c-.845 0-1.521.35-2.024 1.051-.324.437-.529 1.087-.616 1.951l5.241.002zm3.889-5.685h6.423l2.241 4.053 2.611-4.053h5.971l-4.816 6.931L32.143 20h-6.315l-2.611-4.685L20.15 20h-5.864l5.128-7.615-4.863-6.931z"/><path d="M38.452 0v5.422h3.013v4h-3.013v5.05c0 .61.061 1.012.177 1.206.179.304.493.458.94.458.403 0 .968-.116 1.695-.349l.403 3.772c-1.352.294-2.615.442-3.791.442-1.362 0-2.366-.175-3.013-.522s-1.122-.877-1.43-1.59-.464-1.861-.464-3.453V9.422h-2.016v-4h2.016V2.805L38.452 0zm3.81 5.182h5.154V7.61c.496-1.05 1.007-1.773 1.535-2.169s1.179-.592 1.952-.592c.812 0 1.7.259 2.668.78l-1.705 4.046c-.649-.278-1.164-.418-1.543-.418-.722 0-1.281.306-1.675.922-.57.865-.854 2.481-.854 4.854V20h-5.533V5.182zm15.259 4.69l-5.301-.56c.201-.929.488-1.659.866-2.19s.92-.993 1.63-1.385c.509-.282 1.209-.502 2.098-.657s1.853-.232 2.889-.232c1.664 0 3 .093 4.009.278s1.847.576 2.518 1.167c.473.409.849.991 1.118 1.74s.409 1.468.409 2.15v6.403c0 .682.042 1.217.129 1.603s.274.881.567 1.483h-5.206c-.21-.373-.345-.659-.411-.854s-.125-.502-.191-.919c-.725.699-1.448 1.199-2.164 1.501-.983.402-2.123.601-3.421.601-1.728 0-3.039-.4-3.932-1.201s-1.342-1.788-1.342-2.963c0-1.101.322-2.007.968-2.717s1.836-1.238 3.571-1.584l4.048-.881a18.51 18.51 0 0 0 1.963-.662c0-.682-.141-1.161-.422-1.433s-.775-.409-1.485-.409c-.908 0-1.593.145-2.046.436-.359.23-.644.657-.862 1.286zm4.811 2.92l-2.385.724c-1.126.299-1.84.595-2.139.886-.309.299-.465.641-.465 1.024 0 .438.152.794.457 1.072s.752.417 1.342.417a3.45 3.45 0 0 0 1.724-.45c.532-.301.91-.668 1.132-1.099s.334-.993.334-1.686v-.888zM83.928 0v19.679H78.69v-2.108c-.731.894-1.402 1.498-2.007 1.812-.805.41-1.702.617-2.694.617-1.988 0-3.507-.739-4.556-2.216s-1.576-3.27-1.576-5.382c0-2.363.58-4.171 1.739-5.422s2.634-1.878 4.421-1.878c.87 0 1.661.142 2.371.429a5.38 5.38 0 0 1 1.889 1.29V0h5.651zM78.32 12.51c0-1.119-.243-1.954-.73-2.503s-1.099-.824-1.842-.824c-.652 0-1.196.264-1.638.792s-.659 1.413-.659 2.659c0 1.162.226 2.015.679 2.556s1.013.813 1.685.813a2.28 2.28 0 0 0 1.788-.819c.477-.545.718-1.438.718-2.674zm6.204-.044c0-2.213.721-4.035 2.16-5.468s3.385-2.15 5.836-2.15c2.802 0 4.919.84 6.351 2.524 1.15 1.356 1.724 3.026 1.724 5.01 0 2.229-.71 4.056-2.138 5.481S95.056 20 92.534 20c-2.246 0-4.067-.593-5.454-1.775-1.704-1.464-2.556-3.384-2.556-5.759zm5.376-.013c0 1.292.254 2.248.757 2.866s1.141.927 1.905.927a2.34 2.34 0 0 0 1.903-.914c.496-.61.744-1.59.744-2.936 0-1.257-.248-2.192-.749-2.806s-1.12-.921-1.858-.921c-.783 0-1.426.311-1.939.935-.505.626-.762 1.576-.762 2.849zm11.294-7.273h5.022v2.163c.722-.902 1.452-1.544 2.189-1.925s1.624-.57 2.665-.57c1.122 0 2.007.207 2.662.626s1.185 1.042 1.599 1.871c.847-.967 1.612-1.624 2.309-1.974s1.553-.523 2.573-.523c1.503 0 2.679.472 3.522 1.415S125 8.686 125 10.693V20h-5.39v-8.442c0-.671-.122-1.167-.369-1.494-.36-.511-.809-.768-1.343-.768-.634 0-1.14.243-1.527.726s-.58 1.259-.58 2.329v7.645h-5.388v-8.16c0-.651-.039-1.094-.109-1.326-.115-.373-.314-.671-.598-.9a1.53 1.53 0 0 0-.99-.341 1.88 1.88 0 0 0-1.529.738c-.398.491-.596 1.301-.596 2.428v7.562h-5.391l.004-14.816z"/></svg>