<svg xmlns="http://www.w3.org/2000/svg" width="24" height="24" fill="none"><path d="M22 3H12v18h10V3z" fill="#ddd"/><g fill-rule="evenodd" fill="#222"><path d="M12 .25a.75.75 0 01.75.75v5a.75.75 0 11-1.5 0V1A.75.75 0 0112 .25zm0 17a.75.75 0 01.75.75v5a.75.75 0 11-1.5 0v-5a.75.75 0 01.75-.75zM15.25 3a.75.75 0 01.75-.75h6a.75.75 0 01.75.75v18a.75.75 0 01-.75.75h-6a.75.75 0 110-1.5h5.25V3.75H16a.75.75 0 01-.75-.75zm-9 0A.75.75 0 017 2.25h1a.75.75 0 110 1.5H7A.75.75 0 016.25 3zm0 18a.75.75 0 01.75-.75h1a.75.75 0 110 1.5H7a.75.75 0 01-.75-.75zM2 8.25a.75.75 0 01.75.75v1a.75.75 0 11-1.5 0V9A.75.75 0 012 8.25zm0 5a.75.75 0 01.75.75v1a.75.75 0 11-1.5 0v-1a.75.75 0 01.75-.75zM1.25 3A.75.75 0 012 2.25h2a.75.75 0 110 1.5H2.75V5a.75.75 0 11-1.5 0V3zM2 21.75a.75.75 0 01-.75-.75v-2a.75.75 0 111.5 0v1.25H4a.75.75 0 110 1.5H2zM9.335 9.329a.75.75 0 01.335 1.006l-1.229 2.458 2.027 1.621a.75.75 0 11-.937 1.171l-2.5-2a.75.75 0 01-.202-.921l1.5-3a.75.75 0 011.006-.335z"/><path d="M12.011 10.75c1.661 0 3.384.547 4.598 1.708a.75.75 0 11-1.037 1.084c-.877-.839-2.2-1.292-3.561-1.292s-2.654.453-3.481 1.28a.75.75 0 01-1.06-1.06c1.173-1.173 2.882-1.72 4.542-1.72z"/></g></svg>