<svg width="92" height="93" viewBox="0 0 92 93" fill="none" xmlns="http://www.w3.org/2000/svg">
<circle cx="45.5" cy="47.8618" r="44" fill="#FDE7EA"/>
<g clip-path="url(#clip0_442_55031)">
<path d="M72.8009 78.3234L67.4218 84.9757C67.4218 84.9757 45.9604 68.7612 41.6611 59.1003C37.3619 49.4394 45.4546 25.5415 45.4546 25.5415L63.4104 35.4566L72.8009 78.3234Z" fill="#E59D76"/>
<path d="M26.7402 18.9312L21.4293 19.4396C21.4293 19.4396 18.6475 25.5412 27.246 26.0497L26.7402 18.9312Z" fill="#E59D76"/>
<path d="M26.7402 28.3379L21.4293 28.8464C21.4293 28.8464 18.6475 34.948 27.246 35.4564L26.7402 28.3379Z" fill="#E59D76"/>
<path d="M26.7402 38.5073L21.4293 39.0158C21.4293 39.0158 18.6475 45.1174 27.246 45.6259L26.7402 38.5073Z" fill="#E59D76"/>
<path d="M28.2578 48.6768L22.9469 49.1852C22.9469 49.1852 20.165 55.2868 28.7636 55.7953L28.2578 48.6768Z" fill="#E59D76"/>
<path d="M24.1543 21.3825H24.5573V10.2848C24.5573 9.44136 24.7225 8.60613 25.0436 7.82686C25.3647 7.04758 25.8353 6.33951 26.4286 5.74308C27.0219 5.14665 27.7263 4.67353 28.5015 4.35074C29.2767 4.02795 30.1075 3.86182 30.9466 3.86182H54.335C55.174 3.86181 56.0048 4.02795 56.78 4.35074C57.5552 4.67352 58.2596 5.14664 58.8529 5.74307C59.4462 6.3395 59.9168 7.04756 60.2379 7.82684C60.559 8.60611 60.7243 9.44134 60.7243 10.2848V71.1674C60.7243 72.0109 60.559 72.8461 60.2379 73.6254C59.9168 74.4047 59.4462 75.1127 58.8529 75.7092C58.2596 76.3056 57.5552 76.7787 56.7801 77.1015C56.0049 77.4243 55.174 77.5904 54.335 77.5904H30.9466C29.252 77.5904 27.6269 76.9137 26.4287 75.7092C25.2304 74.5046 24.5573 72.8709 24.5573 71.1674V29.282H24.1543V21.3825Z" fill="#3D4753"/>
<path d="M30.6894 5.53272H33.7424C33.602 5.87875 33.5484 6.25417 33.5863 6.62592C33.6243 6.99768 33.7526 7.35435 33.9599 7.66452C34.1673 7.97468 34.4473 8.22883 34.7754 8.40457C35.1035 8.5803 35.4695 8.67223 35.8412 8.67226H49.2401C49.6119 8.67223 49.9779 8.5803 50.306 8.40457C50.6341 8.22883 50.9141 7.97469 51.1215 7.66452C51.3288 7.35435 51.4571 6.99768 51.495 6.62592C51.533 6.25417 51.4794 5.87874 51.339 5.53271H54.1905C55.4559 5.53271 56.6696 6.03807 57.5644 6.93761C58.4592 7.83716 58.9619 9.0572 58.9619 10.3293V71.1226C58.9619 71.7525 58.8385 72.3762 58.5987 72.9582C58.3589 73.5402 58.0075 74.0689 57.5644 74.5144C57.1213 74.9598 56.5953 75.3131 56.0164 75.5541C55.4375 75.7952 54.8171 75.9193 54.1905 75.9193H30.6894C30.0628 75.9193 29.4424 75.7952 28.8635 75.5541C28.2846 75.3131 27.7586 74.9598 27.3155 74.5144C26.8724 74.0689 26.521 73.5402 26.2812 72.9582C26.0414 72.3763 25.918 71.7525 25.918 71.1226V10.3294C25.918 9.69945 26.0414 9.07571 26.2812 8.49376C26.521 7.9118 26.8724 7.38303 27.3155 6.93762C27.7586 6.49221 28.2846 6.13889 28.8635 5.89784C29.4424 5.65679 30.0628 5.53272 30.6894 5.53272Z" fill="white"/>
<path d="M91.0764 77.503L75.1706 61.7695L74.159 40.9224L63.5373 23.126L60.5025 15.499C60.5025 15.499 53.4213 16.2617 59.238 30.753L61.6405 38.5072C59.4748 43.1964 58.3529 48.3041 58.3529 53.474V71.2426C58.3529 75.4265 65.7853 81.4852 68.0939 84.9664L91.0764 77.503Z" fill="#E59D76"/>
<path opacity="0.2" d="M61.3352 24.634L63.4468 23.5908L63.3748 23.4435L61.4238 24.4075L58.4786 16.645L58.3262 16.7036L61.3352 24.634Z" fill="black"/>
<path opacity="0.2" d="M21.4578 19.3627L21.4014 19.5166L24.5295 20.675L24.5859 20.521L21.4578 19.3627Z" fill="black"/>
<path opacity="0.2" d="M21.4578 28.8763L21.4014 29.0303L24.5295 30.1886L24.5859 30.0347L21.4578 28.8763Z" fill="black"/>
<path opacity="0.2" d="M21.4578 39.0463L21.4014 39.2002L24.5295 40.3586L24.5859 40.2046L21.4578 39.0463Z" fill="black"/>
<path opacity="0.2" d="M23.096 49.2193L23.0254 49.3672L24.5483 50.102L24.6189 49.9541L23.096 49.2193Z" fill="black"/>
<path d="M43.0456 52.62C49.1167 52.62 54.0384 47.6921 54.0384 41.6132C54.0384 35.5343 49.1167 30.6064 43.0456 30.6064C36.9744 30.6064 32.0527 35.5343 32.0527 41.6132C32.0527 47.6921 36.9744 52.62 43.0456 52.62Z" fill="#D61229"/>
<path d="M40.6713 38.5906L40.0273 39.2354L45.4206 44.6354L46.0645 43.9906L40.6713 38.5906Z" fill="white"/>
<path d="M46.0639 39.2356L45.4199 38.5908L40.0267 43.9909L40.6707 44.6357L46.0639 39.2356Z" fill="white"/>
</g>
<defs>
<clipPath id="clip0_442_55031">
<rect width="70" height="83" fill="white" transform="translate(21 3.86182)"/>
</clipPath>
</defs>
</svg>
