<svg width="20" height="20" viewBox="0 0 20 20" fill="none" xmlns="http://www.w3.org/2000/svg">
<path fill-rule="evenodd" clip-rule="evenodd" d="M10.9259 2.29199C10.8461 2.29199 10.7696 2.3237 10.7131 2.38013C10.6567 2.43657 10.625 2.51311 10.625 2.59292V7.22255C10.625 7.31155 10.6319 7.34461 10.6376 7.36289C10.6416 7.37584 10.6532 7.40866 10.7069 7.47152C10.7278 7.49606 10.74 7.5051 10.7429 7.50719C10.7449 7.50861 10.7452 7.50873 10.7474 7.50947C10.7588 7.51339 10.7978 7.52347 10.9259 7.52347H12.3148C12.66 7.52347 12.9398 7.8033 12.9398 8.14847V8.49144L13.7247 7.70653C13.8419 7.58932 14.0009 7.52347 14.1667 7.52347H17.4074C17.4872 7.52347 17.5638 7.49177 17.6202 7.43533C17.6766 7.3789 17.7083 7.30236 17.7083 7.22255V2.59292C17.7083 2.51311 17.6766 2.43657 17.6202 2.38013C17.5638 2.3237 17.4872 2.29199 17.4074 2.29199H10.9259ZM9.82926 1.49625C10.1201 1.20539 10.5146 1.04199 10.9259 1.04199H17.4074C17.8187 1.04199 18.2132 1.20539 18.5041 1.49625C18.7949 1.7871 18.9583 2.18159 18.9583 2.59292V7.22255C18.9583 7.63388 18.7949 8.02836 18.5041 8.31922C18.2132 8.61007 17.8187 8.77347 17.4074 8.77347H14.4255L12.7568 10.4423C12.578 10.621 12.3092 10.6745 12.0756 10.5778C11.8421 10.481 11.6898 10.2531 11.6898 10.0003V8.77347H10.9259C10.7624 8.77347 10.5539 8.76479 10.3409 8.69153C10.1105 8.61232 9.91926 8.4742 9.7561 8.28304C9.61031 8.11224 9.50616 7.93343 9.44433 7.7353C9.38416 7.5425 9.375 7.36503 9.375 7.22255V2.59292C9.375 2.18159 9.5384 1.7871 9.82926 1.49625Z" fill="#222222"/>
<path fill-rule="evenodd" clip-rule="evenodd" d="M1.64105 3.5425C1.98595 3.5287 2.27673 3.79712 2.29053 4.14202C2.3773 6.31141 3.16438 9.61711 5.23364 12.4182C7.28416 15.194 10.6088 17.4992 15.8577 17.7092C16.2026 17.723 16.471 18.0137 16.4572 18.3586C16.4434 18.7036 16.1526 18.972 15.8077 18.9582C10.1592 18.7322 6.49126 16.2244 4.22822 13.161C1.98391 10.1229 1.13637 6.56319 1.04152 4.19198C1.02773 3.84708 1.29614 3.5563 1.64105 3.5425Z" fill="#222222"/>
<path fill-rule="evenodd" clip-rule="evenodd" d="M1.04102 4.16699C1.04102 3.82181 1.32084 3.54199 1.66602 3.54199H3.54102C4.81537 3.54199 5.79493 4.56182 5.99544 5.71605C6.03542 5.94616 6.08172 6.17607 6.13333 6.39461C6.33818 7.26194 6.1887 8.30885 5.47933 9.01998C5.19612 9.30388 4.90825 9.59486 4.65177 9.85412C4.3044 10.2052 4.01461 10.4982 3.87194 10.6365C3.62414 10.8768 3.22846 10.8707 2.98816 10.6229C2.74787 10.3751 2.75395 9.97943 3.00176 9.73914C3.13699 9.60801 3.40859 9.33343 3.7433 8.99504C4.00075 8.73476 4.29555 8.43672 4.59435 8.13719C4.92241 7.80832 5.04961 7.24422 4.9168 6.68193C4.85874 6.43607 4.80757 6.18144 4.76389 5.93C4.64931 5.27045 4.10761 4.79199 3.54102 4.79199H1.66602C1.32084 4.79199 1.04102 4.51217 1.04102 4.16699Z" fill="#222222"/>
<path fill-rule="evenodd" clip-rule="evenodd" d="M15.8319 18.9582C16.1771 18.9582 16.4569 18.6784 16.4569 18.3332L16.4569 16.315C16.4569 15.1241 15.5511 14.1535 14.3993 14.0026C13.9448 13.9431 13.4564 13.8706 13.0028 13.7869C12.0258 13.6067 10.8767 13.98 10.3951 15.0143C10.1249 15.5945 9.93547 15.981 9.4014 16.4445C9.14072 16.6708 9.11281 17.0655 9.33907 17.3262C9.56532 17.5869 9.96007 17.6148 10.2207 17.3885C10.9612 16.7458 11.2408 16.1593 11.5282 15.542C11.71 15.1518 12.2077 14.9113 12.7761 15.0162C13.2579 15.1051 13.7692 15.1808 14.2369 15.242C14.7957 15.3152 15.2069 15.7807 15.2069 16.315L15.2069 18.3332C15.2069 18.6784 15.4867 18.9582 15.8319 18.9582Z" fill="#222222"/>
</svg>
