<svg width="92" height="93" viewBox="0 0 92 93" fill="none" xmlns="http://www.w3.org/2000/svg">
<circle cx="45.5" cy="47.8618" r="44" fill="#D61229"/>
<g clip-path="url(#clip0_442_54956)">
<path d="M72.3009 78.3234L66.9218 84.9757C66.9218 84.9757 45.4604 68.7612 41.1611 59.1003C36.8619 49.4394 44.9546 25.5415 44.9546 25.5415L62.9104 35.4566L72.3009 78.3234Z" fill="#E59D76"/>
<path d="M26.2402 18.9312L20.9293 19.4396C20.9293 19.4396 18.1475 25.5412 26.746 26.0497L26.2402 18.9312Z" fill="#E59D76"/>
<path d="M26.2402 28.3379L20.9293 28.8464C20.9293 28.8464 18.1475 34.948 26.746 35.4564L26.2402 28.3379Z" fill="#E59D76"/>
<path d="M26.2402 38.5073L20.9293 39.0158C20.9293 39.0158 18.1475 45.1174 26.746 45.6259L26.2402 38.5073Z" fill="#E59D76"/>
<path d="M27.7578 48.6768L22.4469 49.1852C22.4469 49.1852 19.665 55.2868 28.2636 55.7953L27.7578 48.6768Z" fill="#E59D76"/>
<path d="M23.6543 21.3825H24.0573V10.2848C24.0573 9.44136 24.2225 8.60613 24.5436 7.82686C24.8647 7.04758 25.3353 6.33951 25.9286 5.74308C26.5219 5.14665 27.2263 4.67353 28.0015 4.35074C28.7767 4.02795 29.6075 3.86182 30.4466 3.86182H53.835C54.674 3.86181 55.5048 4.02795 56.28 4.35074C57.0552 4.67352 57.7596 5.14664 58.3529 5.74307C58.9462 6.3395 59.4168 7.04756 59.7379 7.82684C60.059 8.60611 60.2243 9.44134 60.2243 10.2848V71.1674C60.2243 72.0109 60.059 72.8461 59.7379 73.6254C59.4168 74.4047 58.9462 75.1127 58.3529 75.7092C57.7596 76.3056 57.0552 76.7787 56.2801 77.1015C55.5049 77.4243 54.674 77.5904 53.835 77.5904H30.4466C28.752 77.5904 27.1269 76.9137 25.9287 75.7092C24.7304 74.5046 24.0573 72.8709 24.0573 71.1674V29.282H23.6543V21.3825Z" fill="#3D4753"/>
<path d="M30.1894 5.53272H33.2424C33.102 5.87875 33.0484 6.25417 33.0863 6.62592C33.1243 6.99768 33.2526 7.35435 33.4599 7.66452C33.6673 7.97468 33.9473 8.22883 34.2754 8.40457C34.6035 8.5803 34.9695 8.67223 35.3412 8.67226H48.7401C49.1119 8.67223 49.4779 8.5803 49.806 8.40457C50.1341 8.22883 50.4141 7.97469 50.6215 7.66452C50.8288 7.35435 50.9571 6.99768 50.995 6.62592C51.033 6.25417 50.9794 5.87874 50.839 5.53271H53.6905C54.9559 5.53271 56.1696 6.03807 57.0644 6.93761C57.9592 7.83716 58.4619 9.0572 58.4619 10.3293V71.1226C58.4619 71.7525 58.3385 72.3763 58.0987 72.9582C57.8589 73.5402 57.5075 74.0689 57.0644 74.5144C56.6213 74.9598 56.0953 75.3131 55.5164 75.5541C54.9375 75.7952 54.3171 75.9193 53.6905 75.9193H30.1894C29.5628 75.9193 28.9424 75.7952 28.3635 75.5541C27.7846 75.3131 27.2586 74.9598 26.8155 74.5144C26.3724 74.0689 26.021 73.5402 25.7812 72.9582C25.5414 72.3763 25.418 71.7525 25.418 71.1226V10.3294C25.418 9.69945 25.5414 9.07571 25.7812 8.49376C26.021 7.9118 26.3724 7.38303 26.8155 6.93762C27.2586 6.49221 27.7846 6.13889 28.3635 5.89784C28.9424 5.65679 29.5628 5.53272 30.1894 5.53272Z" fill="white"/>
<path d="M42.589 43.2771C42.9499 43.2771 43.2424 42.9846 43.2424 42.6237C43.2424 42.2628 42.9499 41.9702 42.589 41.9702C42.2281 41.9702 41.9355 42.2628 41.9355 42.6237C41.9355 42.9846 42.2281 43.2771 42.589 43.2771Z" fill="#D61229"/>
<path d="M53.6776 42.9506C54.2299 42.9506 54.6819 42.5021 54.6363 41.9517C54.4009 39.1113 53.1673 36.433 51.1369 34.4025C48.8698 32.1355 45.7949 30.8618 42.5888 30.8618C39.3827 30.8618 36.3078 32.1355 34.0407 34.4025C32.0103 36.433 30.7767 39.1113 30.5413 41.9517C30.4957 42.5021 30.9477 42.9506 31.5 42.9506L35.7605 42.9506C36.3128 42.9506 36.7518 42.4997 36.8461 41.9555C37.0499 40.7791 37.612 39.685 38.4676 38.8294C39.5606 37.7364 41.043 37.1223 42.5888 37.1223C44.1346 37.1223 45.617 37.7364 46.71 38.8294C47.5656 39.685 48.1277 40.7791 48.3315 41.9555C48.4258 42.4997 48.8648 42.9506 49.4171 42.9506H53.6776Z" fill="#FDE7EA"/>
<path d="M53.4168 40.5598C53.9561 40.4408 54.3008 39.9053 54.1376 39.3777C53.3636 36.876 51.7945 34.6835 49.6552 33.1422C47.2445 31.4054 44.2785 30.6172 41.3236 30.9282C38.3686 31.2392 35.6317 32.6275 33.6353 34.8281C31.8638 36.781 30.7854 39.2521 30.5493 41.8601C30.4995 42.4101 30.9481 42.8621 31.5003 42.8663L35.7607 42.8987C36.313 42.9029 36.7554 42.4553 36.8538 41.9118C37.047 40.8455 37.5351 39.847 38.2721 39.0346C39.2346 37.9736 40.5542 37.3043 41.9788 37.1544C43.4034 37.0044 44.8334 37.3844 45.9957 38.2218C46.8857 38.863 47.571 39.7379 47.9819 40.7407C48.1913 41.2518 48.7172 41.5975 49.2565 41.4784L53.4168 40.5598Z" fill="#F9B8C0"/>
<path d="M55.126 40.051L44.6727 43.1189C44.6486 42.8548 44.281 41.9819 44.2095 41.7335L54.5957 39.5831L55.126 40.051Z" fill="#D61229"/>
<path d="M90.5764 77.503L74.6706 61.7695L73.659 40.9224L63.0373 23.126L60.0025 15.499C60.0025 15.499 52.9213 16.2617 58.738 30.753L61.1405 38.5072C58.9748 43.1964 57.8529 48.3041 57.8529 53.474V71.2426C57.8529 75.4265 65.2853 81.4852 67.5939 84.9664L90.5764 77.503Z" fill="#E59D76"/>
<path opacity="0.2" d="M60.8352 24.634L62.9468 23.5908L62.8748 23.4435L60.9238 24.4075L57.9786 16.645L57.8262 16.7036L60.8352 24.634Z" fill="black"/>
<path opacity="0.2" d="M20.9578 19.3627L20.9014 19.5166L24.0295 20.675L24.0859 20.521L20.9578 19.3627Z" fill="black"/>
<path opacity="0.2" d="M20.9578 28.8763L20.9014 29.0303L24.0295 30.1886L24.0859 30.0347L20.9578 28.8763Z" fill="black"/>
<path opacity="0.2" d="M20.9578 39.0463L20.9014 39.2002L24.0295 40.3586L24.0859 40.2046L20.9578 39.0463Z" fill="black"/>
<path opacity="0.2" d="M22.596 49.2193L22.5254 49.3672L24.0483 50.102L24.1189 49.9541L22.596 49.2193Z" fill="black"/>
<path d="M51.5 24.1118C51.5 29.2205 47.3586 33.3618 42.25 33.3618C37.1414 33.3618 33 29.2205 33 24.1118C33 19.0032 37.1414 14.8618 42.25 14.8618C47.3586 14.8618 51.5 19.0032 51.5 24.1118Z" fill="#D61229" stroke="white" stroke-width="2"/>
<path d="M42.2526 30.3949C42.7724 30.3949 43.1938 29.9736 43.1938 29.4538C43.1938 28.9341 42.7724 28.5127 42.2526 28.5127C41.7329 28.5127 41.3115 28.9341 41.3115 29.4538C41.3115 29.9736 41.7329 30.3949 42.2526 30.3949Z" fill="white"/>
<path d="M42.248 17.8282C42.1615 18.4026 42.3164 18.5228 42.3173 20.9993C42.3181 23.4759 42.832 26.7963 42.2511 26.7965C41.6702 26.7967 41.4577 19.9441 39.4405 19.3376C37.0688 18.6245 42.5278 15.9686 42.248 17.8282Z" fill="white"/>
<path d="M54.5081 54.8617H29.9547C29.8341 54.8616 29.7185 54.8136 29.6333 54.7284C29.5481 54.6431 29.5001 54.5276 29.5 54.407V48.3165C29.5002 48.1959 29.5481 48.0804 29.6333 47.9952C29.7186 47.9099 29.8341 47.862 29.9547 47.8618H54.5081C54.6286 47.862 54.7442 47.9099 54.8294 47.9952C54.9147 48.0804 54.9626 48.1959 54.9628 48.3165V54.4071C54.9626 54.5277 54.9147 54.6432 54.8294 54.7285C54.7442 54.8137 54.6286 54.8617 54.5081 54.8618V54.8617ZM29.9547 48.0436C29.8823 48.0437 29.813 48.0725 29.7618 48.1236C29.7106 48.1748 29.6819 48.2441 29.6818 48.3165V54.4071C29.6819 54.4795 29.7106 54.5489 29.7618 54.6C29.813 54.6512 29.8823 54.6799 29.9547 54.68H54.5081C54.5804 54.6799 54.6498 54.6512 54.701 54.6C54.7521 54.5489 54.7809 54.4795 54.7809 54.4071V48.3165C54.7809 48.2441 54.7521 48.1748 54.701 48.1236C54.6498 48.0725 54.5804 48.0437 54.5081 48.0436H29.9547Z" fill="#F9B8C0"/>
<path d="M37.5478 50.0884C37.4634 50.0884 37.3824 50.1219 37.3227 50.1816C37.263 50.2413 37.2295 50.3223 37.2295 50.4067C37.2295 50.4911 37.263 50.5721 37.3227 50.6318C37.3824 50.6914 37.4634 50.725 37.5478 50.725H52.5526C52.5943 50.7266 52.636 50.7199 52.6752 50.7054C52.7144 50.6909 52.7504 50.6688 52.7811 50.6404C52.8118 50.612 52.8365 50.5778 52.854 50.5399C52.8715 50.5019 52.8813 50.4608 52.8829 50.419C52.8845 50.3773 52.8778 50.3356 52.8633 50.2964C52.8488 50.2572 52.8267 50.2212 52.7983 50.1905C52.7699 50.1598 52.7357 50.1351 52.6978 50.1176C52.6598 50.1001 52.6187 50.0903 52.5769 50.0887C52.5723 50.0885 52.5676 50.0885 52.5629 50.0885L37.5478 50.0884Z" fill="#F9B8C0"/>
<path d="M37.5478 51.9985C37.4634 51.9985 37.3824 52.0321 37.3227 52.0918C37.263 52.1515 37.2295 52.2324 37.2295 52.3168C37.2295 52.4013 37.263 52.4822 37.3227 52.5419C37.3824 52.6016 37.4634 52.6351 37.5478 52.6351H52.5526C52.5943 52.6367 52.636 52.6301 52.6752 52.6156C52.7144 52.6011 52.7504 52.579 52.7811 52.5506C52.8118 52.5222 52.8365 52.488 52.854 52.45C52.8715 52.412 52.8813 52.371 52.8829 52.3292C52.8845 52.2874 52.8778 52.2457 52.8633 52.2065C52.8488 52.1673 52.8267 52.1314 52.7983 52.1007C52.7699 52.07 52.7357 52.0452 52.6978 52.0278C52.6598 52.0103 52.6187 52.0005 52.5769 51.9989C52.5723 51.9987 52.5676 51.9986 52.5629 51.9987H37.5478L37.5478 51.9985Z" fill="#F9B8C0"/>
<path d="M33.0181 53.2715C34.0728 53.2715 34.9278 52.4165 34.9278 51.3618C34.9278 50.3071 34.0728 49.4521 33.0181 49.4521C31.9634 49.4521 31.1084 50.3071 31.1084 51.3618C31.1084 52.4165 31.9634 53.2715 33.0181 53.2715Z" fill="#F9B8C0"/>
<path d="M54.5081 62.8617H29.9547C29.8341 62.8616 29.7185 62.8136 29.6333 62.7284C29.5481 62.6431 29.5001 62.5276 29.5 62.407V56.3165C29.5002 56.1959 29.5481 56.0804 29.6333 55.9952C29.7186 55.9099 29.8341 55.862 29.9547 55.8618H54.5081C54.6286 55.862 54.7442 55.9099 54.8294 55.9952C54.9147 56.0804 54.9626 56.1959 54.9628 56.3165V62.4071C54.9626 62.5277 54.9147 62.6432 54.8294 62.7285C54.7442 62.8137 54.6286 62.8617 54.5081 62.8618V62.8617ZM29.9547 56.0436C29.8823 56.0437 29.813 56.0725 29.7618 56.1236C29.7106 56.1748 29.6819 56.2441 29.6818 56.3165V62.4071C29.6819 62.4795 29.7106 62.5489 29.7618 62.6C29.813 62.6512 29.8823 62.6799 29.9547 62.68H54.5081C54.5804 62.6799 54.6498 62.6512 54.701 62.6C54.7521 62.5489 54.7809 62.4795 54.7809 62.4071V56.3165C54.7809 56.2441 54.7521 56.1748 54.701 56.1236C54.6498 56.0725 54.5804 56.0437 54.5081 56.0436H29.9547Z" fill="#F9B8C0"/>
<path d="M37.5478 58.0884C37.4634 58.0884 37.3824 58.1219 37.3227 58.1816C37.263 58.2413 37.2295 58.3223 37.2295 58.4067C37.2295 58.4911 37.263 58.5721 37.3227 58.6318C37.3824 58.6914 37.4634 58.725 37.5478 58.725H52.5526C52.5943 58.7266 52.636 58.7199 52.6752 58.7054C52.7144 58.6909 52.7504 58.6688 52.7811 58.6404C52.8118 58.612 52.8365 58.5778 52.854 58.5399C52.8715 58.5019 52.8813 58.4608 52.8829 58.419C52.8845 58.3773 52.8778 58.3356 52.8633 58.2964C52.8488 58.2572 52.8267 58.2212 52.7983 58.1905C52.7699 58.1598 52.7357 58.1351 52.6978 58.1176C52.6598 58.1001 52.6187 58.0903 52.5769 58.0887C52.5723 58.0885 52.5676 58.0885 52.5629 58.0885L37.5478 58.0884Z" fill="#F9B8C0"/>
<path d="M37.5478 59.9985C37.4634 59.9985 37.3824 60.0321 37.3227 60.0918C37.263 60.1515 37.2295 60.2324 37.2295 60.3168C37.2295 60.4013 37.263 60.4822 37.3227 60.5419C37.3824 60.6016 37.4634 60.6351 37.5478 60.6351H52.5526C52.5943 60.6367 52.636 60.6301 52.6752 60.6156C52.7144 60.6011 52.7504 60.579 52.7811 60.5506C52.8118 60.5222 52.8365 60.488 52.854 60.45C52.8715 60.412 52.8813 60.371 52.8829 60.3292C52.8845 60.2874 52.8778 60.2457 52.8633 60.2065C52.8488 60.1673 52.8267 60.1314 52.7983 60.1007C52.7699 60.07 52.7357 60.0452 52.6978 60.0278C52.6598 60.0103 52.6187 60.0005 52.5769 59.9989C52.5723 59.9987 52.5676 59.9986 52.5629 59.9987H37.5478L37.5478 59.9985Z" fill="#F9B8C0"/>
<path d="M33.0181 61.2715C34.0728 61.2715 34.9278 60.4165 34.9278 59.3618C34.9278 58.3071 34.0728 57.4521 33.0181 57.4521C31.9634 57.4521 31.1084 58.3071 31.1084 59.3618C31.1084 60.4165 31.9634 61.2715 33.0181 61.2715Z" fill="#F9B8C0"/>
<path d="M54.5081 70.8617H29.9547C29.8341 70.8616 29.7185 70.8136 29.6333 70.7284C29.5481 70.6431 29.5001 70.5276 29.5 70.407V64.3165C29.5002 64.1959 29.5481 64.0804 29.6333 63.9952C29.7186 63.9099 29.8341 63.862 29.9547 63.8618H54.5081C54.6286 63.862 54.7442 63.9099 54.8294 63.9952C54.9147 64.0804 54.9626 64.1959 54.9628 64.3165V70.4071C54.9626 70.5277 54.9147 70.6432 54.8294 70.7285C54.7442 70.8137 54.6286 70.8617 54.5081 70.8618V70.8617ZM29.9547 64.0436C29.8823 64.0437 29.813 64.0725 29.7618 64.1236C29.7106 64.1748 29.6819 64.2441 29.6818 64.3165V70.4071C29.6819 70.4795 29.7106 70.5489 29.7618 70.6C29.813 70.6512 29.8823 70.6799 29.9547 70.68H54.5081C54.5804 70.6799 54.6498 70.6512 54.701 70.6C54.7521 70.5489 54.7809 70.4795 54.7809 70.4071V64.3165C54.7809 64.2441 54.7521 64.1748 54.701 64.1236C54.6498 64.0725 54.5804 64.0437 54.5081 64.0436H29.9547Z" fill="#F9B8C0"/>
<path d="M37.5478 66.0884C37.4634 66.0884 37.3824 66.1219 37.3227 66.1816C37.263 66.2413 37.2295 66.3223 37.2295 66.4067C37.2295 66.4911 37.263 66.5721 37.3227 66.6318C37.3824 66.6914 37.4634 66.725 37.5478 66.725H52.5526C52.5943 66.7266 52.636 66.7199 52.6752 66.7054C52.7144 66.6909 52.7504 66.6688 52.7811 66.6404C52.8118 66.612 52.8365 66.5778 52.854 66.5399C52.8715 66.5019 52.8813 66.4608 52.8829 66.419C52.8845 66.3773 52.8778 66.3356 52.8633 66.2964C52.8488 66.2572 52.8267 66.2212 52.7983 66.1905C52.7699 66.1598 52.7357 66.1351 52.6978 66.1176C52.6598 66.1001 52.6187 66.0903 52.5769 66.0887C52.5723 66.0885 52.5676 66.0885 52.5629 66.0885L37.5478 66.0884Z" fill="#F9B8C0"/>
<path d="M37.5478 67.9985C37.4634 67.9985 37.3824 68.0321 37.3227 68.0918C37.263 68.1515 37.2295 68.2324 37.2295 68.3168C37.2295 68.4013 37.263 68.4822 37.3227 68.5419C37.3824 68.6016 37.4634 68.6351 37.5478 68.6351H52.5526C52.5943 68.6367 52.636 68.6301 52.6752 68.6156C52.7144 68.6011 52.7504 68.579 52.7811 68.5506C52.8118 68.5222 52.8365 68.488 52.854 68.45C52.8715 68.412 52.8813 68.371 52.8829 68.3292C52.8845 68.2874 52.8778 68.2457 52.8633 68.2065C52.8488 68.1673 52.8267 68.1314 52.7983 68.1007C52.7699 68.07 52.7357 68.0452 52.6978 68.0278C52.6598 68.0103 52.6187 68.0005 52.5769 67.9989C52.5723 67.9987 52.5676 67.9986 52.5629 67.9987H37.5478L37.5478 67.9985Z" fill="#F9B8C0"/>
<path d="M33.0181 69.2715C34.0728 69.2715 34.9278 68.4165 34.9278 67.3618C34.9278 66.3071 34.0728 65.4521 33.0181 65.4521C31.9634 65.4521 31.1084 66.3071 31.1084 67.3618C31.1084 68.4165 31.9634 69.2715 33.0181 69.2715Z" fill="#F9B8C0"/>
</g>
<defs>
<clipPath id="clip0_442_54956">
<rect width="70" height="83" fill="white" transform="translate(20.5 3.86182)"/>
</clipPath>
</defs>
</svg>
