<svg width="93" height="93" viewBox="0 0 93 93" fill="none" xmlns="http://www.w3.org/2000/svg">
<circle cx="45.5" cy="47.5" r="44" fill="#F2F2F2"/>
<g clip-path="url(#clip0_416_53729)">
<path d="M72.741 83.2412L66.9009 90.4545C66.9009 90.4545 43.5999 72.8726 38.9321 62.3969C34.2643 51.9212 43.0507 26.0078 43.0507 26.0078L62.5456 36.7591L72.741 83.2412Z" fill="#E59D76"/>
<path d="M22.7322 18.8403L16.9661 19.3917C16.9661 19.3917 13.9458 26.0079 23.2814 26.5592L22.7322 18.8403Z" fill="#E59D76"/>
<path d="M22.7322 29.0403L16.9661 29.5916C16.9661 29.5916 13.9458 36.2078 23.2814 36.7592L22.7322 29.0403Z" fill="#E59D76"/>
<path d="M22.7322 40.0674L16.9661 40.6187C16.9661 40.6187 13.9458 47.2349 23.2814 47.7863L22.7322 40.0674Z" fill="#E59D76"/>
<path d="M24.3797 51.0942L18.6136 51.6456C18.6136 51.6456 15.5933 58.2618 24.9288 58.8131L24.3797 51.0942Z" fill="#E59D76"/>
<path d="M19.9248 21.4983H20.3623V9.46473C20.3623 8.55011 20.5417 7.64444 20.8904 6.79944C21.239 5.95444 21.7499 5.18666 22.3941 4.53992C23.0383 3.89319 23.803 3.38017 24.6446 3.03016C25.4862 2.68015 26.3883 2.5 27.2993 2.5H52.6924C53.6033 2.5 54.5054 2.68014 55.347 3.03015C56.1887 3.38016 56.9534 3.89318 57.5975 4.53991C58.2417 5.18664 58.7527 5.95442 59.1013 6.79942C59.4499 7.64442 59.6293 8.55008 59.6293 9.4647V75.482C59.6293 76.3966 59.4499 77.3022 59.1013 78.1472C58.7527 78.9922 58.2417 79.76 57.5976 80.4068C56.9534 81.0535 56.1887 81.5665 55.347 81.9165C54.5054 82.2665 53.6034 82.4467 52.6924 82.4467H27.2993C25.4595 82.4467 23.6951 81.7129 22.3941 80.4068C21.0932 79.1007 20.3623 77.3292 20.3623 75.482V30.064H19.9248V21.4983Z" fill="#3D4753"/>
<path d="M27.0193 4.31202H30.3339C30.1815 4.68723 30.1233 5.09431 30.1645 5.49742C30.2057 5.90053 30.345 6.28728 30.5701 6.6236C30.7952 6.95993 31.0993 7.23551 31.4555 7.42607C31.8117 7.61662 32.2091 7.71631 32.6127 7.71634H47.1601C47.5637 7.71631 47.9611 7.61662 48.3173 7.42607C48.6735 7.23551 48.9775 6.95993 49.2027 6.62361C49.4278 6.28728 49.5671 5.90053 49.6083 5.49742C49.6494 5.09431 49.5913 4.68722 49.4388 4.31201H52.5347C53.9086 4.31201 55.2263 4.85999 56.1978 5.8354C57.1693 6.8108 57.7151 8.13374 57.7151 9.51318V75.4336C57.7151 76.1166 57.5811 76.7929 57.3208 77.424C57.0605 78.055 56.6789 78.6284 56.1978 79.1114C55.7168 79.5943 55.1457 79.9775 54.5172 80.2389C53.8887 80.5002 53.215 80.6348 52.5347 80.6348H27.0193C26.339 80.6348 25.6654 80.5002 25.0368 80.2389C24.4083 79.9775 23.8372 79.5943 23.3562 79.1114C22.8751 78.6284 22.4935 78.055 22.2332 77.424C21.9729 76.793 21.8389 76.1166 21.8389 75.4336V9.51318C21.8389 8.83016 21.9729 8.15382 22.2332 7.52278C22.4935 6.89175 22.8751 6.31837 23.3562 5.8354C23.8372 5.35243 24.4083 4.96931 25.0368 4.70793C25.6654 4.44655 26.339 4.31202 27.0193 4.31202Z" fill="white"/>
<path d="M92.5821 82.3518L75.3129 65.2915L74.2146 42.6861L62.6825 23.3889L59.3876 15.1187C59.3876 15.1187 51.6995 15.9457 58.0147 31.6591L60.6232 40.0672C58.2718 45.1519 57.0537 50.6904 57.0537 56.2964V75.5635C57.0537 80.1002 65.1231 86.6699 67.6297 90.4447L92.5821 82.3518Z" fill="#E59D76"/>
<path opacity="0.2" d="M60.2923 25.0241L62.5849 23.8929L62.5068 23.7331L60.3885 24.7785L57.1909 16.3613L57.0254 16.4248L60.2923 25.0241Z" fill="black"/>
<path opacity="0.2" d="M16.9968 19.3079L16.9355 19.4749L20.3318 20.7309L20.393 20.564L16.9968 19.3079Z" fill="black"/>
<path opacity="0.2" d="M16.9968 29.6241L16.9355 29.791L20.3318 31.0471L20.393 30.8802L16.9968 29.6241Z" fill="black"/>
<path opacity="0.2" d="M16.9968 40.6519L16.9355 40.8188L20.3318 42.0749L20.393 41.908L16.9968 40.6519Z" fill="black"/>
<path opacity="0.2" d="M18.7759 51.6827L18.6992 51.843L20.3527 52.6398L20.4293 52.4795L18.7759 51.6827Z" fill="black"/>
</g>
<path d="M39.5 29.5C43.0899 29.5 46 26.5899 46 23C46 19.4101 43.0899 16.5 39.5 16.5C35.9102 16.5 33 19.4101 33 23C33 26.5899 35.9102 29.5 39.5 29.5Z" fill="#06A84F"/>
<g clip-path="url(#clip1_416_53729)">
<path fill-rule="evenodd" clip-rule="evenodd" d="M38.1079 20.4411C38.4771 20.0719 38.9779 19.8645 39.5 19.8645C40.0222 19.8645 40.5229 20.0719 40.8921 20.4411C41.2613 20.8103 41.4688 21.3111 41.4688 21.8333C41.4688 22.8219 41.6803 23.4413 41.8796 23.8066C41.9795 23.9898 42.0775 24.1113 42.1471 24.1848C42.182 24.2216 42.2098 24.2465 42.2275 24.2612C42.2363 24.2685 42.2425 24.2733 42.2458 24.2757L42.2483 24.2776C42.3272 24.3314 42.3621 24.4301 42.3344 24.5216C42.3064 24.6139 42.2214 24.677 42.125 24.677H36.875C36.7786 24.677 36.6936 24.6139 36.6657 24.5216C36.6379 24.4301 36.6729 24.3314 36.7517 24.2776L36.7542 24.2757C36.7575 24.2733 36.7638 24.2685 36.7726 24.2612C36.7902 24.2465 36.8181 24.2216 36.8529 24.1848C36.9225 24.1113 37.0206 23.9898 37.1205 23.8066C37.3197 23.4413 37.5313 22.8219 37.5313 21.8333C37.5313 21.3111 37.7387 20.8103 38.1079 20.4411ZM37.3679 24.2395H41.6322C41.5874 24.1743 41.5413 24.1001 41.4955 24.0161C41.2572 23.5793 41.0313 22.8863 41.0313 21.8333C41.0313 21.4271 40.8699 21.0377 40.5828 20.7505C40.2956 20.4633 39.9061 20.302 39.5 20.302C39.0939 20.302 38.7044 20.4633 38.4173 20.7505C38.1301 21.0377 37.9688 21.4271 37.9688 21.8333C37.9688 22.8863 37.7428 23.5793 37.5046 24.0161C37.4587 24.1001 37.4126 24.1743 37.3679 24.2395Z" fill="white"/>
<path fill-rule="evenodd" clip-rule="evenodd" d="M38.8854 25.4358C38.9899 25.3752 39.1238 25.4108 39.1844 25.5153C39.2164 25.5705 39.2624 25.6164 39.3178 25.6483C39.3731 25.6801 39.4359 25.6969 39.4997 25.6969C39.5636 25.6969 39.6264 25.6801 39.6817 25.6483C39.7371 25.6164 39.7831 25.5705 39.8151 25.5153C39.8757 25.4108 40.0096 25.3752 40.1141 25.4358C40.2186 25.4964 40.2542 25.6303 40.1935 25.7348C40.123 25.8563 40.0218 25.9572 39.9001 26.0274C39.7783 26.0975 39.6403 26.1344 39.4997 26.1344C39.3592 26.1344 39.2212 26.0975 39.0994 26.0274C38.9776 25.9572 38.8764 25.8563 38.8059 25.7348C38.7453 25.6303 38.7809 25.4964 38.8854 25.4358Z" fill="white"/>
</g>
<path d="M46.9672 36.5H15.0781C13.9969 36.5012 12.9603 36.9313 12.1958 37.6958C11.4313 38.4603 11.0012 39.4969 11 40.5781V58.024C11.0012 59.1052 11.4313 60.1417 12.1958 60.9063C12.9603 61.6708 13.9969 62.1008 15.0781 62.1021H46.9672C48.0484 62.1008 49.085 61.6708 49.8495 60.9063C50.614 60.1417 51.0441 59.1052 51.0453 58.024V40.5781C51.0441 39.4969 50.614 38.4603 49.8495 37.6958C49.085 36.9313 48.0484 36.5012 46.9672 36.5Z" fill="#3D4753"/>
<path d="M46.9671 37.6741H15.0779C14.308 37.6749 13.5698 37.9812 13.0254 38.5256C12.4809 39.0701 12.1747 39.8082 12.1738 40.5782V58.024C12.1747 58.794 12.4809 59.5321 13.0254 60.0766C13.5698 60.621 14.308 60.9273 15.0779 60.9281H46.9671C47.737 60.9273 48.4752 60.621 49.0196 60.0766C49.564 59.5321 49.8703 58.794 49.8711 58.024V40.5782C49.8703 39.8082 49.564 39.0701 49.0196 38.5256C48.4752 37.9812 47.737 37.6749 46.9671 37.6741Z" fill="white"/>
<path d="M44.5412 68.1354L37.7305 61.3247L45.7708 61.5952V67.6261C45.7723 67.7689 45.7306 67.9088 45.6513 68.0276C45.572 68.1463 45.4586 68.2383 45.3261 68.2916C45.2374 68.3287 45.1422 68.348 45.0459 68.3482C44.9519 68.348 44.8589 68.329 44.7722 68.2925C44.6856 68.2559 44.6071 68.2026 44.5412 68.1354Z" fill="#3D4753"/>
<path d="M22.2032 51.5041C23.42 51.5041 24.4065 50.5177 24.4065 49.3009C24.4065 48.0841 23.42 47.0977 22.2032 47.0977C20.9864 47.0977 20 48.0841 20 49.3009C20 50.5177 20.9864 51.5041 22.2032 51.5041Z" fill="#06A84F"/>
<path d="M28.6095 51.5041C29.8263 51.5041 30.8127 50.5177 30.8127 49.3009C30.8127 48.0841 29.8263 47.0977 28.6095 47.0977C27.3927 47.0977 26.4062 48.0841 26.4062 49.3009C26.4062 50.5177 27.3927 51.5041 28.6095 51.5041Z" fill="#06A84F"/>
<path d="M35.0157 51.5041C36.2325 51.5041 37.219 50.5177 37.219 49.3009C37.219 48.0841 36.2325 47.0977 35.0157 47.0977C33.7989 47.0977 32.8125 48.0841 32.8125 49.3009C32.8125 50.5177 33.7989 51.5041 35.0157 51.5041Z" fill="#06A84F"/>
<path d="M41.423 51.5041C42.6398 51.5041 43.6262 50.5177 43.6262 49.3009C43.6262 48.0841 42.6398 47.0977 41.423 47.0977C40.2061 47.0977 39.2197 48.0841 39.2197 49.3009C39.2197 50.5177 40.2061 51.5041 41.423 51.5041Z" fill="#06A84F"/>
<defs>
<clipPath id="clip0_416_53729">
<rect width="76" height="90" fill="white" transform="translate(16.5 2.5)"/>
</clipPath>
<clipPath id="clip1_416_53729">
<rect width="7" height="7" fill="white" transform="translate(36 19.5)"/>
</clipPath>
</defs>
</svg>
