<svg width="44" height="43" viewBox="0 0 44 43" fill="none" xmlns="http://www.w3.org/2000/svg">
<path d="M41.8071 0H18.2265C17.4615 0 16.8394 0.622113 16.8394 1.3871V2.77419C16.8394 3.53918 17.4615 4.16129 18.2265 4.16129V16.657C17.562 16.6868 16.9406 16.9503 16.4683 17.4233L12.1558 21.7358C11.6974 21.1928 11.1731 20.7156 10.5974 20.3154V19.3625C12.5629 19.031 14.0652 17.3172 14.0652 15.2588H15.4523V14.5652C15.4523 12.187 14.817 10.2375 14.1921 8.89476C14.955 8.25739 15.4523 7.31139 15.4523 6.24194C15.4523 4.32982 13.8966 2.77419 11.9845 2.77419H8.5889C6.13652 2.77419 3.81521 3.84226 2.21866 5.70374C0.91271 7.22677 0.1935 9.17079 0.1935 11.1772V11.4588C0.1935 13.1948 0.949468 14.8392 2.26998 15.9703L5.19814 18.4616L5.10521 19.0199C2.92955 20.4597 1.58129 22.9211 1.58129 25.5434V30.5342C1.58129 31.7208 2.10353 32.8541 2.98573 33.6364C3.09045 34.9014 3.7625 36.007 4.74734 36.6977C2.56058 37.6354 0.862081 39.5475 0.255226 41.9735L0 43H28.1303L27.8737 41.9729C27.4 40.0795 26.2598 38.5009 24.743 37.4516H41.8071V4.16129C42.5721 4.16129 43.1942 3.53918 43.1942 2.77419V1.3871C43.1942 0.622113 42.5721 0 41.8071 0ZM17.449 18.4033C17.6855 18.1675 18.0115 18.0323 18.3457 18.0323C19.0448 18.0323 19.6135 18.601 19.6135 19.3008C19.6135 19.6399 19.4818 19.9575 19.2425 20.1968L18.2265 21.2129L16.4329 19.4194L17.449 18.4033ZM23.7748 33.2903C23.7748 34.3126 23.2131 35.1976 22.3877 35.6789V33.2903H21.0006V36.0645H19.6135V33.2903H18.2265V35.6789C17.4011 35.1976 16.8394 34.3126 16.8394 33.2903V29.8226C16.8394 28.6755 17.7729 27.7419 18.92 27.7419H23.7748V33.2903ZM18.2265 26.4249C16.8699 26.7016 15.799 27.7725 15.5223 29.129H14.0645L14.0652 27.3362L18.2265 23.1749V26.4249ZM12.6781 30.5161H15.4523V33.2903H12.6781V30.5161ZM13.9327 25.5066C13.7649 24.5842 13.4375 23.6972 12.9659 22.8857L15.4523 20.4L17.2458 22.1935L13.9327 25.5066ZM14.0444 13.871H12.6774V15.2581C12.6774 16.788 11.4331 18.0323 9.90318 18.0323H9.20963V19.5463C8.60624 19.2834 7.97095 19.0878 7.31277 18.9783L6.54016 18.8493L7.17892 15.0202L6.02902 13.871C5.84661 13.6879 5.74189 13.4354 5.74189 13.1774C5.74189 12.7953 6.0526 12.4839 6.43543 12.4839H6.90497L8.01534 9.70968H11.9845C12.3271 9.70968 12.6517 9.64448 12.9638 9.55155C13.4528 10.6168 13.9403 12.0892 14.0444 13.871ZM3.17021 14.9148C2.1604 14.0485 1.5806 12.789 1.5806 11.4581V11.1765C1.5806 9.50092 2.18121 7.87802 3.27147 6.60605C4.60377 5.0525 6.54155 4.16129 8.5889 4.16129H11.9845C13.1316 4.16129 14.0652 5.09481 14.0652 6.24194C14.0652 7.38906 13.1316 8.32258 11.9845 8.32258H7.82323C7.44039 8.32258 7.12968 8.01118 7.12968 7.62903C7.12968 7.24689 7.44039 6.93548 7.82323 6.93548H8.51677V5.54839H7.82323C6.6761 5.54839 5.74258 6.4819 5.74258 7.62903C5.74258 8.34686 6.10808 8.98076 6.66292 9.35527L5.94232 11.1557C5.03239 11.3777 4.35479 12.2002 4.35479 13.1774C4.35479 13.8002 4.60724 14.4105 5.04834 14.8516L5.69265 15.496L5.46447 16.8657L3.17021 14.9148ZM2.96839 30.5161V25.5434C2.96839 23.3754 4.08084 21.3301 5.88753 20.1469L7.08529 20.3466C8.66519 20.6102 10.1008 21.4327 11.1259 22.6631C12.1267 23.8643 12.6781 25.3866 12.6781 26.9492L12.6774 29.129H12.4353C11.8625 27.5151 10.3249 26.3548 8.51677 26.3548H7.12968V24.9677H5.74258V26.5976C4.12869 27.1705 2.96839 28.708 2.96839 30.5161ZM4.35548 30.5161C4.35548 28.9862 5.59971 27.7419 7.12968 27.7419H8.51677C10.0467 27.7419 11.291 28.9862 11.291 30.5161V33.2903C11.291 34.3126 10.7292 35.1976 9.90387 35.6789V33.2903H8.51677V36.0645H7.12968V33.2903H5.74258V35.6789C4.91726 35.1976 4.35548 34.3126 4.35548 33.2903V30.5161ZM1.81848 41.6129C2.74645 39.13 5.12116 37.4516 7.82323 37.4516C10.5253 37.4516 12.9007 39.13 13.828 41.6129H1.81848ZM14.0659 39.1841C13.2468 38.0897 12.1461 37.2415 10.8901 36.704C11.5975 36.2109 12.142 35.5041 12.4353 34.6774H15.695C15.9884 35.5041 16.5335 36.2115 17.2416 36.7047C15.9946 37.238 14.8926 38.0807 14.0659 39.1841ZM26.3118 41.6129H15.2914C15.1741 41.2224 15.0278 40.8458 14.8551 40.4859C16.0189 38.6057 18.076 37.4516 20.3071 37.4516C23.0092 37.4516 25.3846 39.13 26.3118 41.6129ZM40.42 36.0645H24.0939C24.7555 35.3273 25.1619 34.357 25.1619 33.2903V27.7419C25.1619 26.977 24.5398 26.3548 23.7748 26.3548H19.6135V21.7878L20.2232 21.1782C20.7246 20.6768 21.0006 20.0103 21.0006 19.3008C21.0006 18.2979 20.4354 17.4344 19.6135 16.9822V4.16129H40.42V36.0645ZM18.2265 2.77419V1.3871H41.8071L41.8078 2.77419H18.2265Z" fill="#90DEE2"/>
<path d="M23.0449 22.2456H37.3494V23.6327H23.0449V22.2456Z" fill="#0A5667"/>
<path d="M37.3491 15.7432L37.3491 23.3722L35.962 23.3722L35.962 15.7432L37.3491 15.7432Z" fill="#0A5667"/>
<path d="M24.4316 15.7432L24.4316 23.3722L23.0445 23.3722L23.0445 15.7432L24.4316 15.7432Z" fill="#0A5667"/>
<path d="M30.2236 8.0708L38.3739 16.2211L37.3931 17.2019L29.2428 9.05163L30.2236 8.0708Z" fill="#0A5667"/>
<path d="M31.1846 9.04346L23.0216 17.2064L22.0408 16.2256L30.2037 8.06263L31.1846 9.04346Z" fill="#0A5667"/>
</svg>
