<svg width="20" height="16" viewBox="0 0 20 16" fill="none" xmlns="http://www.w3.org/2000/svg">
<g clip-path="url(#clip0)">
<mask id="mask0" mask-type="alpha" maskUnits="userSpaceOnUse" x="0" y="0" width="20" height="16">
<rect y="0.500977" width="20" height="15" fill="white"/>
</mask>
<g mask="url(#mask0)">
<path fill-rule="evenodd" clip-rule="evenodd" d="M5 0.500977H20V15.501H5V0.500977Z" fill="#EF0000"/>
<path fill-rule="evenodd" clip-rule="evenodd" d="M0 0.500977H7.5V15.501H0V0.500977Z" fill="#2F8D00"/>
<mask id="mask1" mask-type="alpha" maskUnits="userSpaceOnUse" x="2" y="3" width="11" height="10">
<path fill-rule="evenodd" clip-rule="evenodd" d="M7.44045 12.8804C4.77765 12.8804 2.61902 10.6957 2.61902 8.00086C2.61902 5.30597 4.77765 3.12134 7.44045 3.12134C10.1032 3.12134 12.2619 5.30597 12.2619 8.00086C12.2619 10.6957 10.1032 12.8804 7.44045 12.8804Z" fill="white"/>
</mask>
<g mask="url(#mask1)">
<path fill-rule="evenodd" clip-rule="evenodd" d="M7.14282 3.00098H7.76782V4.68772H7.14282V3.00098Z" fill="#FFE017"/>
<path fill-rule="evenodd" clip-rule="evenodd" d="M7.14282 11.4346H7.76782V13.0008H7.14282V11.4346Z" fill="#FFE017"/>
<path d="M2.69647 8.25325L2.52173 7.80494C4.44997 7.03514 5.90532 6.5387 6.89281 6.31496C8.34164 5.98671 9.93356 5.74384 11.6687 5.58618L11.7113 6.06618C9.99605 6.22203 8.42454 6.46178 6.99684 6.78525C6.03875 7.00232 4.60361 7.49187 2.69647 8.25325Z" fill="#FFE017"/>
<path d="M11.963 5.29091L11.8212 5.75097C10.3638 5.2909 9.1767 5.09314 8.26418 5.1544L8.23267 4.67352C9.21241 4.60776 10.4544 4.81465 11.963 5.29091Z" fill="#FFE017"/>
<path d="M12.4673 7.86331L12.1979 8.26071C11.455 7.74492 10.5397 7.48583 9.4458 7.48583V7.00391C10.6317 7.00391 11.6409 7.28958 12.4673 7.86331Z" fill="#FFE017"/>
<path d="M12.0637 8.00757L12.1868 8.47311C10.5851 8.90695 9.08142 9.15308 7.67552 9.21105C6.25992 9.26941 4.61001 9.02239 2.72437 8.47186L2.85635 8.00882C4.69617 8.54596 6.29657 8.78557 7.65614 8.72952C9.0254 8.67307 10.4946 8.43258 12.0637 8.00757Z" fill="#FFE017"/>
<path d="M11.8823 10.2732L11.1296 11.0449C9.6992 9.61576 8.43987 8.5939 7.35939 7.97992C6.26045 7.35545 4.82733 6.72134 3.06226 6.08015L3.42422 5.05957C5.24135 5.71967 6.72719 6.3771 7.88395 7.03443C9.05918 7.70225 10.3894 8.78163 11.8823 10.2732Z" fill="#FFE017"/>
<path d="M3.41138 10.7104L3.12646 10.3243C3.16625 10.2942 3.23724 10.2441 3.33506 10.1805C3.49656 10.0756 3.67589 9.97084 3.86884 9.87296C4.40029 9.60337 4.93337 9.43505 5.44182 9.41959C5.46669 9.41884 5.49145 9.41846 5.5161 9.41846V9.90038C5.49624 9.90038 5.47625 9.90069 5.45612 9.9013C5.02764 9.91433 4.5571 10.0629 4.08223 10.3038C3.90523 10.3936 3.74031 10.4899 3.5923 10.5861C3.54078 10.6195 3.49519 10.6505 3.45613 10.6781C3.43336 10.6942 3.41825 10.7052 3.41138 10.7104Z" fill="#FFE017"/>
<path d="M3.63257 10.8775L3.75249 10.4111C5.34006 10.8292 6.56399 11.0375 7.41817 11.0375C8.26916 11.0375 9.53578 10.7918 11.2098 10.2986L11.3429 10.7613C9.62929 11.2662 8.32379 11.5195 7.41817 11.5195C6.51575 11.5195 5.25591 11.305 3.63257 10.8775Z" fill="#FFE017"/>
<path d="M3.01404 6.55975L3.76846 5.78979L4.87304 6.89832L4.11861 7.66828L3.01404 6.55975Z" fill="#FFE017"/>
<path d="M9.27246 10.4057L9.83361 9.48193L11.5859 10.5722L11.0247 11.4959L9.27246 10.4057Z" fill="#FFE017"/>
</g>
<path fill-rule="evenodd" clip-rule="evenodd" d="M2.61902 8.00086C2.61902 10.6957 4.77765 12.8804 7.44045 12.8804C10.1032 12.8804 12.2619 10.6957 12.2619 8.00086C12.2619 5.30597 10.1032 3.12134 7.44045 3.12134C4.77765 3.12134 2.61902 5.30597 2.61902 8.00086ZM11.6666 8.0611C11.6666 10.39 9.80116 12.278 7.49997 12.278C5.19878 12.278 3.3333 10.39 3.3333 8.0611C3.3333 5.73219 5.19878 3.84423 7.49997 3.84423C9.80116 3.84423 11.6666 5.73219 11.6666 8.0611Z" fill="#F9E813"/>
<path d="M4.7854 4.99146V8.9044C5.04298 10.4532 5.91077 11.2276 7.38877 11.2276C8.86676 11.2276 9.73455 10.4532 9.99213 8.9044V4.99146H4.7854Z" fill="white"/>
<path d="M4.42822 4.63013H10.3492V8.93472L10.3443 8.96451C10.0583 10.6843 9.04429 11.5892 7.38873 11.5892C5.73318 11.5892 4.7192 10.6843 4.43318 8.96451L4.42822 8.93472V4.63013Z" fill="#C51918"/>
<path d="M5.78259 5.94507H8.99492V8.72063C8.99492 8.72063 8.75654 10.1539 7.38876 10.1539C6.02097 10.1539 5.78259 8.72063 5.78259 8.72063V5.94507Z" fill="#F7FCFF"/>
<path fill-rule="evenodd" clip-rule="evenodd" d="M4.99988 4.92847H5.45169V5.22967H4.99988V4.92847Z" fill="#F9E813"/>
<path fill-rule="evenodd" clip-rule="evenodd" d="M4.76184 5.04883H5.59517V5.19943H4.76184V5.04883Z" fill="#060101"/>
<path fill-rule="evenodd" clip-rule="evenodd" d="M4.76184 5.16943H5.21365V5.32004H4.76184V5.16943Z" fill="#F9E813"/>
<path fill-rule="evenodd" clip-rule="evenodd" d="M5.23804 5.16943H5.68984V5.32004H5.23804V5.16943Z" fill="#F9E813"/>
<path fill-rule="evenodd" clip-rule="evenodd" d="M4.76184 5.53076H5.06305V5.98257H4.76184V5.53076Z" fill="#F9E813"/>
<path fill-rule="evenodd" clip-rule="evenodd" d="M5.35706 5.53076H5.65826V5.98257H5.35706V5.53076Z" fill="#F9E813"/>
<path fill-rule="evenodd" clip-rule="evenodd" d="M5.11902 5.53076H5.26962V5.98257H5.11902V5.53076Z" fill="#F9E813"/>
<path fill-rule="evenodd" clip-rule="evenodd" d="M4.76184 5.4104H5.59517V5.561H4.76184V5.4104Z" fill="#060101"/>
<path fill-rule="evenodd" clip-rule="evenodd" d="M4.76184 5.77173H5.59517V5.92233H4.76184V5.77173Z" fill="#060101"/>
<path fill-rule="evenodd" clip-rule="evenodd" d="M4.88086 5.28979H5.03146V5.4404H4.88086V5.28979Z" fill="#F9E813"/>
<path fill-rule="evenodd" clip-rule="evenodd" d="M5.35706 5.28979H5.50766V5.4404H5.35706V5.28979Z" fill="#F9E813"/>
<path fill-rule="evenodd" clip-rule="evenodd" d="M5.11902 5.16943H5.26962V5.47064H5.11902V5.16943Z" fill="#F9E813"/>
<path fill-rule="evenodd" clip-rule="evenodd" d="M7.26184 4.92847H7.71365V5.22967H7.26184V4.92847Z" fill="#F9E813"/>
<path fill-rule="evenodd" clip-rule="evenodd" d="M7.0238 5.04883H7.85714V5.19943H7.0238V5.04883Z" fill="#060101"/>
<path fill-rule="evenodd" clip-rule="evenodd" d="M7.0238 5.16943H7.47561V5.32004H7.0238V5.16943Z" fill="#F9E813"/>
<path fill-rule="evenodd" clip-rule="evenodd" d="M7.5 5.16943H7.95181V5.32004H7.5V5.16943Z" fill="#F9E813"/>
<path fill-rule="evenodd" clip-rule="evenodd" d="M7.0238 5.53076H7.32501V5.98257H7.0238V5.53076Z" fill="#F9E813"/>
<path fill-rule="evenodd" clip-rule="evenodd" d="M7.61902 5.53076H7.92022V5.98257H7.61902V5.53076Z" fill="#F9E813"/>
<path fill-rule="evenodd" clip-rule="evenodd" d="M7.38098 5.53076H7.53158V5.98257H7.38098V5.53076Z" fill="#F9E813"/>
<path fill-rule="evenodd" clip-rule="evenodd" d="M7.0238 5.4104H7.85714V5.561H7.0238V5.4104Z" fill="#060101"/>
<path fill-rule="evenodd" clip-rule="evenodd" d="M7.0238 5.77173H7.85714V5.92233H7.0238V5.77173Z" fill="#060101"/>
<path fill-rule="evenodd" clip-rule="evenodd" d="M7.14282 5.28979H7.29342V5.4404H7.14282V5.28979Z" fill="#F9E813"/>
<path fill-rule="evenodd" clip-rule="evenodd" d="M7.61902 5.28979H7.76962V5.4404H7.61902V5.28979Z" fill="#F9E813"/>
<path fill-rule="evenodd" clip-rule="evenodd" d="M7.38098 5.16943H7.53158V5.47064H7.38098V5.16943Z" fill="#F9E813"/>
<path fill-rule="evenodd" clip-rule="evenodd" d="M9.40466 4.92847H9.85647V5.22967H9.40466V4.92847Z" fill="#F9E813"/>
<path fill-rule="evenodd" clip-rule="evenodd" d="M9.16663 5.04883H9.99996V5.19943H9.16663V5.04883Z" fill="#060101"/>
<path fill-rule="evenodd" clip-rule="evenodd" d="M9.16663 5.16943H9.61843V5.32004H9.16663V5.16943Z" fill="#F9E813"/>
<path fill-rule="evenodd" clip-rule="evenodd" d="M9.64282 5.16943H10.0946V5.32004H9.64282V5.16943Z" fill="#F9E813"/>
<path fill-rule="evenodd" clip-rule="evenodd" d="M9.16663 5.53076H9.46783V5.98257H9.16663V5.53076Z" fill="#F9E813"/>
<path fill-rule="evenodd" clip-rule="evenodd" d="M9.76184 5.53076H10.063V5.98257H9.76184V5.53076Z" fill="#F9E813"/>
<path fill-rule="evenodd" clip-rule="evenodd" d="M9.5238 5.53076H9.67441V5.98257H9.5238V5.53076Z" fill="#F9E813"/>
<path fill-rule="evenodd" clip-rule="evenodd" d="M9.16663 5.4104H9.99996V5.561H9.16663V5.4104Z" fill="#060101"/>
<path fill-rule="evenodd" clip-rule="evenodd" d="M9.16663 5.77173H9.99996V5.92233H9.16663V5.77173Z" fill="#060101"/>
<path fill-rule="evenodd" clip-rule="evenodd" d="M9.28564 5.28979H9.43625V5.4404H9.28564V5.28979Z" fill="#F9E813"/>
<path fill-rule="evenodd" clip-rule="evenodd" d="M9.76184 5.28979H9.91244V5.4404H9.76184V5.28979Z" fill="#F9E813"/>
<path fill-rule="evenodd" clip-rule="evenodd" d="M9.5238 5.16943H9.67441V5.47064H9.5238V5.16943Z" fill="#F9E813"/>
<path fill-rule="evenodd" clip-rule="evenodd" d="M9.40466 7.09717H9.85647V7.39837H9.40466V7.09717Z" fill="#F9E813"/>
<path fill-rule="evenodd" clip-rule="evenodd" d="M9.16663 7.21753H9.99996V7.36813H9.16663V7.21753Z" fill="#060101"/>
<path fill-rule="evenodd" clip-rule="evenodd" d="M9.16663 7.33813H9.61843V7.48874H9.16663V7.33813Z" fill="#F9E813"/>
<path fill-rule="evenodd" clip-rule="evenodd" d="M9.64282 7.33813H10.0946V7.48874H9.64282V7.33813Z" fill="#F9E813"/>
<path fill-rule="evenodd" clip-rule="evenodd" d="M9.16663 7.69946H9.46783V8.15127H9.16663V7.69946Z" fill="#F9E813"/>
<path fill-rule="evenodd" clip-rule="evenodd" d="M9.76184 7.69946H10.063V8.15127H9.76184V7.69946Z" fill="#F9E813"/>
<path fill-rule="evenodd" clip-rule="evenodd" d="M9.5238 7.69946H9.67441V8.15127H9.5238V7.69946Z" fill="#F9E813"/>
<path fill-rule="evenodd" clip-rule="evenodd" d="M9.16663 7.5791H9.99996V7.7297H9.16663V7.5791Z" fill="#060101"/>
<path fill-rule="evenodd" clip-rule="evenodd" d="M9.16663 7.94043H9.99996V8.09103H9.16663V7.94043Z" fill="#060101"/>
<path fill-rule="evenodd" clip-rule="evenodd" d="M9.28564 7.4585H9.43625V7.6091H9.28564V7.4585Z" fill="#F9E813"/>
<path fill-rule="evenodd" clip-rule="evenodd" d="M9.76184 7.4585H9.91244V7.6091H9.76184V7.4585Z" fill="#F9E813"/>
<path fill-rule="evenodd" clip-rule="evenodd" d="M9.5238 7.33813H9.67441V7.63934H9.5238V7.33813Z" fill="#F9E813"/>
<path fill-rule="evenodd" clip-rule="evenodd" d="M4.99988 7.09717H5.45169V7.39837H4.99988V7.09717Z" fill="#F9E813"/>
<path fill-rule="evenodd" clip-rule="evenodd" d="M4.76184 7.21753H5.59517V7.36813H4.76184V7.21753Z" fill="#060101"/>
<path fill-rule="evenodd" clip-rule="evenodd" d="M4.76184 7.33813H5.21365V7.48874H4.76184V7.33813Z" fill="#F9E813"/>
<path fill-rule="evenodd" clip-rule="evenodd" d="M5.23804 7.33813H5.68984V7.48874H5.23804V7.33813Z" fill="#F9E813"/>
<path fill-rule="evenodd" clip-rule="evenodd" d="M4.76184 7.69946H5.06305V8.15127H4.76184V7.69946Z" fill="#F9E813"/>
<path fill-rule="evenodd" clip-rule="evenodd" d="M5.35706 7.69946H5.65826V8.15127H5.35706V7.69946Z" fill="#F9E813"/>
<path fill-rule="evenodd" clip-rule="evenodd" d="M5.11902 7.69946H5.26962V8.15127H5.11902V7.69946Z" fill="#F9E813"/>
<path fill-rule="evenodd" clip-rule="evenodd" d="M4.76184 7.5791H5.59517V7.7297H4.76184V7.5791Z" fill="#060101"/>
<path fill-rule="evenodd" clip-rule="evenodd" d="M4.76184 7.94043H5.59517V8.09103H4.76184V7.94043Z" fill="#060101"/>
<path fill-rule="evenodd" clip-rule="evenodd" d="M4.88086 7.4585H5.03146V7.6091H4.88086V7.4585Z" fill="#F9E813"/>
<path fill-rule="evenodd" clip-rule="evenodd" d="M5.35706 7.4585H5.50766V7.6091H5.35706V7.4585Z" fill="#F9E813"/>
<path fill-rule="evenodd" clip-rule="evenodd" d="M5.11902 7.33813H5.26962V7.63934H5.11902V7.33813Z" fill="#F9E813"/>
<path fill-rule="evenodd" clip-rule="evenodd" d="M5.28979 9.81567L5.58021 9.46957L5.81095 9.66318L5.52053 10.0093L5.28979 9.81567Z" fill="#F9E813"/>
<path fill-rule="evenodd" clip-rule="evenodd" d="M5.229 10.0754L5.76466 9.43707L5.88003 9.53387L5.34437 10.1722L5.229 10.0754Z" fill="#060101"/>
<path fill-rule="evenodd" clip-rule="evenodd" d="M5.32129 10.1528L5.61171 9.80673L5.72707 9.90353L5.43666 10.2496L5.32129 10.1528Z" fill="#F9E813"/>
<path fill-rule="evenodd" clip-rule="evenodd" d="M5.62744 9.78809L5.91786 9.44198L6.03323 9.53879L5.74281 9.88489L5.62744 9.78809Z" fill="#F9E813"/>
<path fill-rule="evenodd" clip-rule="evenodd" d="M5.59814 10.3853L5.79176 10.1545L6.13786 10.4449L5.94425 10.6757L5.59814 10.3853Z" fill="#F9E813"/>
<path fill-rule="evenodd" clip-rule="evenodd" d="M5.98083 9.9292L6.17445 9.69846L6.52055 9.98888L6.32694 10.2196L5.98083 9.9292Z" fill="#F9E813"/>
<path fill-rule="evenodd" clip-rule="evenodd" d="M5.82776 10.1116L5.92456 9.9962L6.27067 10.2866L6.17386 10.402L5.82776 10.1116Z" fill="#F9E813"/>
<path fill-rule="evenodd" clip-rule="evenodd" d="M5.50586 10.3079L6.04152 9.66949L6.15688 9.7663L5.62123 10.4047L5.50586 10.3079Z" fill="#060101"/>
<path fill-rule="evenodd" clip-rule="evenodd" d="M5.78284 10.54L6.31849 9.90167L6.43386 9.99847L5.89821 10.6368L5.78284 10.54Z" fill="#060101"/>
<path fill-rule="evenodd" clip-rule="evenodd" d="M5.49011 10.1392L5.58692 10.0238L5.70229 10.1206L5.60548 10.236L5.49011 10.1392Z" fill="#F9E813"/>
<path fill-rule="evenodd" clip-rule="evenodd" d="M5.79626 9.77441L5.89307 9.65905L6.00844 9.75585L5.91163 9.87122L5.79626 9.77441Z" fill="#F9E813"/>
<path fill-rule="evenodd" clip-rule="evenodd" d="M5.5509 9.87939L5.64771 9.76403L5.87844 9.95764L5.78164 10.073L5.5509 9.87939Z" fill="#F9E813"/>
<path fill-rule="evenodd" clip-rule="evenodd" d="M9.36145 9.54224L9.65187 9.88834L9.42113 10.082L9.13071 9.73585L9.36145 9.54224Z" fill="#F9E813"/>
<path fill-rule="evenodd" clip-rule="evenodd" d="M9.11609 9.43726L9.65175 10.0756L9.53638 10.1724L9.00072 9.53406L9.11609 9.43726Z" fill="#060101"/>
<path fill-rule="evenodd" clip-rule="evenodd" d="M9.0238 9.51465L9.31422 9.86075L9.19885 9.95756L8.90844 9.61145L9.0238 9.51465Z" fill="#F9E813"/>
<path fill-rule="evenodd" clip-rule="evenodd" d="M9.32983 9.87964L9.62025 10.2257L9.50488 10.3225L9.21447 9.97644L9.32983 9.87964Z" fill="#F9E813"/>
<path fill-rule="evenodd" clip-rule="evenodd" d="M8.74695 9.74707L8.94056 9.97781L8.59445 10.2682L8.40084 10.0375L8.74695 9.74707Z" fill="#F9E813"/>
<path fill-rule="evenodd" clip-rule="evenodd" d="M9.12952 10.2031L9.32313 10.4339L8.97702 10.7243L8.78341 10.4935L9.12952 10.2031Z" fill="#F9E813"/>
<path fill-rule="evenodd" clip-rule="evenodd" d="M8.97644 10.0208L9.07325 10.1361L8.72714 10.4265L8.63034 10.3112L8.97644 10.0208Z" fill="#F9E813"/>
<path fill-rule="evenodd" clip-rule="evenodd" d="M8.83923 9.66968L9.37489 10.308L9.25952 10.4049L8.72387 9.76648L8.83923 9.66968Z" fill="#060101"/>
<path fill-rule="evenodd" clip-rule="evenodd" d="M8.56226 9.90186L9.09791 10.5402L8.98254 10.637L8.44689 9.99866L8.56226 9.90186Z" fill="#060101"/>
<path fill-rule="evenodd" clip-rule="evenodd" d="M9.00806 9.68335L9.10486 9.79872L8.98949 9.89552L8.89269 9.78015L9.00806 9.68335Z" fill="#F9E813"/>
<path fill-rule="evenodd" clip-rule="evenodd" d="M9.31409 10.0481L9.41089 10.1635L9.29552 10.2603L9.19872 10.1449L9.31409 10.0481Z" fill="#F9E813"/>
<path fill-rule="evenodd" clip-rule="evenodd" d="M9.2533 9.78833L9.3501 9.9037L9.11936 10.0973L9.02256 9.98194L9.2533 9.78833Z" fill="#F9E813"/>
<path fill-rule="evenodd" clip-rule="evenodd" d="M7.84889 6.25391H7.02368V6.85483C7.02368 6.85483 7.08492 7.16514 7.43629 7.16514C7.78765 7.16514 7.84889 6.85483 7.84889 6.85483V6.25391ZM7.38082 6.49487C7.38082 6.56141 7.32753 6.61535 7.26178 6.61535C7.19603 6.61535 7.14273 6.56141 7.14273 6.49487C7.14273 6.42833 7.19603 6.37439 7.26178 6.37439C7.32753 6.37439 7.38082 6.42833 7.38082 6.49487ZM7.26178 7.09728C7.32753 7.09728 7.38082 7.04334 7.38082 6.9768C7.38082 6.91026 7.32753 6.85632 7.26178 6.85632C7.19603 6.85632 7.14273 6.91026 7.14273 6.9768C7.14273 7.04334 7.19603 7.09728 7.26178 7.09728ZM7.73797 6.9768C7.73797 7.04334 7.68467 7.09728 7.61892 7.09728C7.55317 7.09728 7.49987 7.04334 7.49987 6.9768C7.49987 6.91026 7.55317 6.85632 7.61892 6.85632C7.68467 6.85632 7.73797 6.91026 7.73797 6.9768ZM7.44035 6.85632C7.5061 6.85632 7.5594 6.80237 7.5594 6.73583C7.5594 6.66929 7.5061 6.61535 7.44035 6.61535C7.3746 6.61535 7.3213 6.66929 7.3213 6.73583C7.3213 6.80237 7.3746 6.85632 7.44035 6.85632ZM7.73797 6.49487C7.73797 6.56141 7.68467 6.61535 7.61892 6.61535C7.55317 6.61535 7.49987 6.56141 7.49987 6.49487C7.49987 6.42833 7.55317 6.37439 7.61892 6.37439C7.68467 6.37439 7.73797 6.42833 7.73797 6.49487Z" fill="#013399"/>
<path fill-rule="evenodd" clip-rule="evenodd" d="M7.84889 7.5791H7.02368V8.18002C7.02368 8.18002 7.08492 8.49034 7.43629 8.49034C7.78765 8.49034 7.84889 8.18002 7.84889 8.18002V7.5791ZM7.38082 7.82007C7.38082 7.88661 7.32753 7.94055 7.26178 7.94055C7.19603 7.94055 7.14273 7.88661 7.14273 7.82007C7.14273 7.75353 7.19603 7.69958 7.26178 7.69958C7.32753 7.69958 7.38082 7.75353 7.38082 7.82007ZM7.26178 8.42248C7.32753 8.42248 7.38082 8.36853 7.38082 8.30199C7.38082 8.23545 7.32753 8.18151 7.26178 8.18151C7.19603 8.18151 7.14273 8.23545 7.14273 8.30199C7.14273 8.36853 7.19603 8.42248 7.26178 8.42248ZM7.73797 8.30199C7.73797 8.36853 7.68467 8.42248 7.61892 8.42248C7.55317 8.42248 7.49987 8.36853 7.49987 8.30199C7.49987 8.23545 7.55317 8.18151 7.61892 8.18151C7.68467 8.18151 7.73797 8.23545 7.73797 8.30199ZM7.44035 8.18151C7.5061 8.18151 7.5594 8.12757 7.5594 8.06103C7.5594 7.99449 7.5061 7.94055 7.44035 7.94055C7.3746 7.94055 7.3213 7.99449 7.3213 8.06103C7.3213 8.12757 7.3746 8.18151 7.44035 8.18151ZM7.73797 7.82007C7.73797 7.88661 7.68467 7.94055 7.61892 7.94055C7.55317 7.94055 7.49987 7.88661 7.49987 7.82007C7.49987 7.75353 7.55317 7.69958 7.61892 7.69958C7.68467 7.69958 7.73797 7.75353 7.73797 7.82007Z" fill="#013399"/>
<path fill-rule="evenodd" clip-rule="evenodd" d="M8.92042 7.5791H8.09521V8.18002C8.09521 8.18002 8.15645 8.49034 8.50782 8.49034C8.85919 8.49034 8.92042 8.18002 8.92042 8.18002V7.5791ZM8.45236 7.82007C8.45236 7.88661 8.39906 7.94055 8.33331 7.94055C8.26756 7.94055 8.21426 7.88661 8.21426 7.82007C8.21426 7.75353 8.26756 7.69958 8.33331 7.69958C8.39906 7.69958 8.45236 7.75353 8.45236 7.82007ZM8.33331 8.42248C8.39906 8.42248 8.45236 8.36853 8.45236 8.30199C8.45236 8.23545 8.39906 8.18151 8.33331 8.18151C8.26756 8.18151 8.21426 8.23545 8.21426 8.30199C8.21426 8.36853 8.26756 8.42248 8.33331 8.42248ZM8.8095 8.30199C8.8095 8.36853 8.7562 8.42248 8.69045 8.42248C8.6247 8.42248 8.57141 8.36853 8.57141 8.30199C8.57141 8.23545 8.6247 8.18151 8.69045 8.18151C8.7562 8.18151 8.8095 8.23545 8.8095 8.30199ZM8.51188 8.18151C8.57763 8.18151 8.63093 8.12757 8.63093 8.06103C8.63093 7.99449 8.57763 7.94055 8.51188 7.94055C8.44613 7.94055 8.39283 7.99449 8.39283 8.06103C8.39283 8.12757 8.44613 8.18151 8.51188 8.18151ZM8.8095 7.82007C8.8095 7.88661 8.7562 7.94055 8.69045 7.94055C8.6247 7.94055 8.57141 7.88661 8.57141 7.82007C8.57141 7.75353 8.6247 7.69958 8.69045 7.69958C8.7562 7.69958 8.8095 7.75353 8.8095 7.82007Z" fill="#013399"/>
<path fill-rule="evenodd" clip-rule="evenodd" d="M6.77748 7.5791H5.95227V8.18002C5.95227 8.18002 6.01351 8.49034 6.36487 8.49034C6.71624 8.49034 6.77748 8.18002 6.77748 8.18002V7.5791ZM6.30941 7.82007C6.30941 7.88661 6.25611 7.94055 6.19037 7.94055C6.12462 7.94055 6.07132 7.88661 6.07132 7.82007C6.07132 7.75353 6.12462 7.69958 6.19037 7.69958C6.25611 7.69958 6.30941 7.75353 6.30941 7.82007ZM6.19037 8.42248C6.25611 8.42248 6.30941 8.36853 6.30941 8.30199C6.30941 8.23545 6.25611 8.18151 6.19037 8.18151C6.12462 8.18151 6.07132 8.23545 6.07132 8.30199C6.07132 8.36853 6.12462 8.42248 6.19037 8.42248ZM6.66656 8.30199C6.66656 8.36853 6.61326 8.42248 6.54751 8.42248C6.48176 8.42248 6.42846 8.36853 6.42846 8.30199C6.42846 8.23545 6.48176 8.18151 6.54751 8.18151C6.61326 8.18151 6.66656 8.23545 6.66656 8.30199ZM6.36894 8.18151C6.43469 8.18151 6.48798 8.12757 6.48798 8.06103C6.48798 7.99449 6.43469 7.94055 6.36894 7.94055C6.30319 7.94055 6.24989 7.99449 6.24989 8.06103C6.24989 8.12757 6.30319 8.18151 6.36894 8.18151ZM6.66656 7.82007C6.66656 7.88661 6.61326 7.94055 6.54751 7.94055C6.48176 7.94055 6.42846 7.88661 6.42846 7.82007C6.42846 7.75353 6.48176 7.69958 6.54751 7.69958C6.61326 7.69958 6.66656 7.75353 6.66656 7.82007Z" fill="#013399"/>
<path fill-rule="evenodd" clip-rule="evenodd" d="M7.84889 8.9043H7.02368V9.50522C7.02368 9.50522 7.08492 9.81554 7.43629 9.81554C7.78765 9.81554 7.84889 9.50522 7.84889 9.50522V8.9043ZM7.38082 9.14526C7.38082 9.2118 7.32753 9.26574 7.26178 9.26574C7.19603 9.26574 7.14273 9.2118 7.14273 9.14526C7.14273 9.07872 7.19603 9.02478 7.26178 9.02478C7.32753 9.02478 7.38082 9.07872 7.38082 9.14526ZM7.26178 9.74767C7.32753 9.74767 7.38082 9.69373 7.38082 9.62719C7.38082 9.56065 7.32753 9.50671 7.26178 9.50671C7.19603 9.50671 7.14273 9.56065 7.14273 9.62719C7.14273 9.69373 7.19603 9.74767 7.26178 9.74767ZM7.73797 9.62719C7.73797 9.69373 7.68467 9.74767 7.61892 9.74767C7.55317 9.74767 7.49987 9.69373 7.49987 9.62719C7.49987 9.56065 7.55317 9.50671 7.61892 9.50671C7.68467 9.50671 7.73797 9.56065 7.73797 9.62719ZM7.44035 9.50671C7.5061 9.50671 7.5594 9.45276 7.5594 9.38622C7.5594 9.31968 7.5061 9.26574 7.44035 9.26574C7.3746 9.26574 7.3213 9.31968 7.3213 9.38622C7.3213 9.45276 7.3746 9.50671 7.44035 9.50671ZM7.73797 9.14526C7.73797 9.2118 7.68467 9.26574 7.61892 9.26574C7.55317 9.26574 7.49987 9.2118 7.49987 9.14526C7.49987 9.07872 7.55317 9.02478 7.61892 9.02478C7.68467 9.02478 7.73797 9.07872 7.73797 9.14526Z" fill="#013399"/>
</g>
<rect y="0.500977" width="20" height="15" fill="url(#paint0_linear)" style="mix-blend-mode:overlay"/>
</g>
<path d="M1.5 1.50098H18.5V-0.499023H1.5V1.50098ZM19 2.00098V14.001H21V2.00098H19ZM18.5 14.501H1.5V16.501H18.5V14.501ZM1 14.001V2.00098H-1V14.001H1ZM1.5 14.501C1.22386 14.501 1 14.2771 1 14.001H-1C-1 15.3817 0.119288 16.501 1.5 16.501V14.501ZM19 14.001C19 14.2771 18.7761 14.501 18.5 14.501V16.501C19.8807 16.501 21 15.3817 21 14.001H19ZM18.5 1.50098C18.7761 1.50098 19 1.72483 19 2.00098H21C21 0.620265 19.8807 -0.499023 18.5 -0.499023V1.50098ZM1.5 -0.499023C0.119288 -0.499023 -1 0.620265 -1 2.00098H1C1 1.72483 1.22386 1.50098 1.5 1.50098V-0.499023Z" fill="black" fill-opacity="0.1" style="mix-blend-mode:multiply"/>
<defs>
<linearGradient id="paint0_linear" x1="10" y1="0.500977" x2="10" y2="15.501" gradientUnits="userSpaceOnUse">
<stop stop-color="white" stop-opacity="0.7"/>
<stop offset="1" stop-opacity="0.3"/>
</linearGradient>
<clipPath id="clip0">
<path d="M0 2.00098C0 1.17255 0.671573 0.500977 1.5 0.500977H18.5C19.3284 0.500977 20 1.17255 20 2.00098V14.001C20 14.8294 19.3284 15.501 18.5 15.501H1.5C0.671573 15.501 0 14.8294 0 14.001V2.00098Z" fill="white"/>
</clipPath>
</defs>
</svg>
