<svg width="48" height="50" viewBox="0 0 48 50" fill="none" xmlns="http://www.w3.org/2000/svg">
<path d="M9.28104 49.5033H1.54684C0.670297 49.5033 0 48.833 0 47.9565C0 47.0799 0.670297 46.4096 1.54684 46.4096H7.7342V27.332H1.54684C0.670297 27.332 0 26.6617 0 25.7851C0 24.9086 0.670297 24.2383 1.54684 24.2383H9.28104C10.1576 24.2383 10.8279 24.9086 10.8279 25.7851V47.9565C10.8279 48.833 10.1576 49.5033 9.28104 49.5033Z" fill="#119DA4"/>
<path d="M37.4346 49.5036H22.0693C19.5944 49.5036 17.2225 49.0911 14.9023 48.2145C14.0773 47.9052 13.7164 47.0286 13.9742 46.2036C14.2835 45.3786 15.1601 45.0177 15.9851 45.2755C17.9444 45.9974 19.9553 46.3583 22.0693 46.3583H37.4346C39.1876 46.3583 40.6829 45.1208 40.9923 43.3678L44.2922 24.8057C44.4985 23.7745 44.1891 22.6917 43.5188 21.8667C42.8485 21.0417 41.8173 20.5777 40.7345 20.5777L31.041 20.6292C30.5253 20.6292 30.0613 20.3714 29.7519 19.9589C29.4426 19.5464 29.391 19.0308 29.5457 18.5668L31.2988 13.6169C31.9175 11.8122 32.33 9.95602 32.5878 8.04825L32.8972 5.9858C33.1034 4.59364 32.1238 3.25305 30.68 3.09837C30.0097 2.99524 29.3394 3.20149 28.7723 3.61398C28.2051 4.02647 27.8442 4.64521 27.7926 5.3155L27.4832 7.37795C26.452 14.6997 22.3787 21.2995 16.2429 25.5275C15.521 25.9916 14.5929 25.8369 14.0773 25.115C13.6132 24.3932 13.7679 23.4651 14.4898 22.9495C19.9037 19.2371 23.513 13.4106 24.3896 6.96546L24.6989 4.90301C24.9052 3.40773 25.6786 2.06714 26.9161 1.13904C28.102 0.210933 29.5972 -0.149997 31.0925 0.0562487C32.5878 0.262494 33.9284 1.03591 34.8565 2.27338C35.7846 3.51086 36.1455 4.95457 35.9393 6.44985L35.6299 8.5123C35.3206 10.6263 34.8565 12.6888 34.1862 14.6997L33.155 17.5871L40.7345 17.5355C42.7454 17.5355 44.6016 18.4121 45.8906 19.9589C47.1797 21.5058 47.6953 23.4651 47.3343 25.4244L44.0344 43.9865C43.4672 47.1833 40.6829 49.5036 37.4346 49.5036Z" fill="#44C2C9"/>
</svg>
