<svg xmlns="http://www.w3.org/2000/svg" width="16" height="16" fill="#222"  fill-rule="evenodd" xmlns:v="https://vecta.io/nano"><path d="M2.667 1.834c-.46 0-.833.373-.833.833v10.667c0 .46.373.833.833.833h10.667c.46 0 .833-.373.833-.833V2.667c0-.46-.373-.833-.833-.833H2.667zm-1.833.833c0-1.013.821-1.833 1.833-1.833h10.667c1.012 0 1.833.821 1.833 1.833v10.667c0 1.012-.821 1.833-1.833 1.833H2.667c-1.013 0-1.833-.821-1.833-1.833V2.667z"/><path d="M9.335 10.197a.5.5 0 0 1 .334-.003l5.161 1.778a.5.5 0 0 1-.326.945l-4.994-1.72-5.339 1.94a.5.5 0 0 1-.341-.94l5.505-2z"/><path d="M4.5 12.167a.5.5 0 0 1 .5.5v2a.5.5 0 1 1-1 0v-2a.5.5 0 0 1 .5-.5zm5.092-8.616a.45.45 0 0 1 .449.449v3.592a.45.45 0 0 1-.449.449.45.45 0 0 1-.449-.449V4a.45.45 0 0 1 .449-.449z"/><path d="M10.662 4.475c-.272-.026-.614-.026-1.071-.026A.45.45 0 0 1 9.143 4a.45.45 0 0 1 .449-.449h.019l1.136.03c.321.03.637.095.901.267.282.184.451.455.547.785.091.315.12.703.12 1.163s-.03.848-.12 1.163c-.095.33-.264.6-.547.785-.264.172-.58.237-.901.267s-.703.03-1.136.03h-.019a.45.45 0 0 1-.449-.449.45.45 0 0 1 .449-.449l1.071-.026c.274-.026.414-.073.494-.125.062-.04.124-.107.175-.282.055-.19.085-.476.085-.914s-.03-.723-.085-.914c-.051-.175-.113-.241-.175-.282-.08-.052-.22-.1-.494-.125zM5.551 4A.45.45 0 0 1 6 3.551h1.796a.45.45 0 0 1 .374.698L7.422 5.37a1.01 1.01 0 0 1 .649.471c.163.265.218.587.201.878s-.108.607-.296.86c-.196.263-.501.462-.899.462H6a.45.45 0 0 1-.449-.449A.45.45 0 0 1 6 7.143h1.078c.069 0 .123-.026.178-.099a.72.72 0 0 0 .12-.375.64.64 0 0 0-.069-.356c-.034-.055-.061-.067-.109-.067h-.599a.45.45 0 0 1-.374-.698l.732-1.098H6A.45.45 0 0 1 5.551 4z"/></svg>