<svg xmlns="http://www.w3.org/2000/svg" width="20" height="16" fill="none"  xmlns:v="https://vecta.io/nano"><g clip-path="url(#F)"><mask id="A" mask-type="alpha" maskUnits="userSpaceOnUse" x="0" y="0" width="20" height="16"><path fill="#fff" d="M0 .501h20v15H0z"/></mask><g mask="url(#A)"><path fill-rule="evenodd" d="M0 .501v15h20v-15H0z" fill="#2e42a5"/><mask id="B" mask-type="alpha" maskUnits="userSpaceOnUse" x="0" y="0" width="20" height="16"><path fill-rule="evenodd" d="M0 .501v15h20v-15H0z" fill="#fff"/></mask><g mask="url(#B)"><mask id="C" mask-type="alpha" maskUnits="userSpaceOnUse" x="0" y="0" width="20" height="16"><path fill="#fff" d="M0 .501h20v15H0z"/></mask><g mask="url(#C)"><path d="M-2.227 14.43l4.401 1.861L20.1 2.525l2.321-2.766-4.706-.622-7.311 5.932-5.885 3.997-6.745 5.364z" fill="#fff"/><path d="M-1.624 15.734l2.242 1.08L21.588-.498H18.44L-1.624 15.734z" fill="#f50100"/><path d="M22.227 14.43l-4.401 1.861L-.1 2.525-2.421-.241l4.706-.622 7.312 5.932 5.885 3.997 6.746 5.364z" fill="#fff"/><path d="M22.077 15.365l-2.242 1.08-8.929-7.412-2.647-.828L-2.645-.232H.504L11.4 8.005l2.894.993 7.782 6.367z" fill="#f50100"/><mask id="D" fill="#fff"><path fill-rule="evenodd" d="M12.361-.749H7.639v6.25h-8.872v5h8.872v6.25h4.722v-6.25h8.906v-5h-8.906v-6.25z"/></mask><path fill-rule="evenodd" d="M12.361-.749H7.639v6.25h-8.872v5h8.872v6.25h4.722v-6.25h8.906v-5h-8.906v-6.25z" fill="#f50100"/><path d="M7.639-.749v-1.25h-1.25v1.25h1.25zm4.722 0h1.25v-1.25h-1.25v1.25zm-4.722 6.25v1.25h1.25v-1.25h-1.25zm-8.872 0v-1.25h-1.25v1.25h1.25zm0 5h-1.25v1.25h1.25v-1.25zm8.872 0h1.25v-1.25h-1.25v1.25zm0 6.25h-1.25v1.25h1.25v-1.25zm4.722 0v1.25h1.25v-1.25h-1.25zm0-6.25v-1.25h-1.25v1.25h1.25zm8.906 0v1.25h1.25v-1.25h-1.25zm0-5h1.25v-1.25h-1.25v1.25zm-8.906 0h-1.25v1.25h1.25v-1.25zm-4.722-5h4.722v-2.5H7.639v2.5zm1.25 5v-6.25h-2.5v6.25h2.5zm-10.122 1.25h8.872v-2.5h-8.872v2.5zm1.25 3.75v-5h-2.5v5h2.5zm7.622-1.25h-8.872v2.5h8.872v-2.5zm1.25 7.5v-6.25h-2.5v6.25h2.5zm3.472-1.25H7.639v2.5h4.722v-2.5zm-1.25-5v6.25h2.5v-6.25h-2.5zm10.156-1.25h-8.906v2.5h8.906v-2.5zm-1.25-3.75v5h2.5v-5h-2.5zm-7.656 1.25h8.906v-2.5h-8.906v2.5zm-1.25-7.5v6.25h2.5v-6.25h-2.5z" fill="#fff" mask="url(#D)"/></g></g></g><path fill="url(#E)" style="mix-blend-mode:overlay" d="M0 .501h20v15H0z"/></g><path d="M1.5 1.501h17v-2h-17v2zm17.5.5v12h2v-12h-2zm-.5 12.5h-17v2h17v-2zm-17.5-.5v-12h-2v12h2zm.5.5a.5.5 0 0 1-.5-.5h-2a2.5 2.5 0 0 0 2.5 2.5v-2zm17.5-.5a.5.5 0 0 1-.5.5v2a2.5 2.5 0 0 0 2.5-2.5h-2zm-.5-12.5a.5.5 0 0 1 .5.5h2a2.5 2.5 0 0 0-2.5-2.5v2zm-17-2a2.5 2.5 0 0 0-2.5 2.5h2a.5.5 0 0 1 .5-.5v-2z" fill="#000" fill-opacity=".1" style="mix-blend-mode:multiply"/><defs><linearGradient id="E" x1="10" y1=".501" x2="10" y2="15.501" gradientUnits="userSpaceOnUse"><stop stop-color="#fff" stop-opacity=".7"/><stop offset="1" stop-opacity=".3"/></linearGradient><clipPath id="F"><path d="M0 2.001a1.5 1.5 0 0 1 1.5-1.5h17a1.5 1.5 0 0 1 1.5 1.5v12a1.5 1.5 0 0 1-1.5 1.5h-17a1.5 1.5 0 0 1-1.5-1.5v-12z" fill="#fff"/></clipPath></defs></svg>