<svg xmlns="http://www.w3.org/2000/svg" width="16" height="16" fill="#222"  fill-rule="evenodd" xmlns:v="https://vecta.io/nano"><path d="M2.094 11.846c-.702.731-.927 1.603-.927 2.154a.5.5 0 0 1-1 0c0-.782.308-1.91 1.206-2.846C2.283 10.205 3.756 9.5 6 9.5s3.717.705 4.627 1.654c.898.936 1.206 2.064 1.206 2.846a.5.5 0 1 1-1 0c0-.551-.226-1.423-.927-2.154C9.216 11.128 8.022 10.5 6 10.5s-3.217.628-3.906 1.346zM12.167 10a.5.5 0 0 1 .5-.5c1.356 0 2.155.969 2.588 1.917A6.84 6.84 0 0 1 15.833 14a.5.5 0 1 1-1 0 5.85 5.85 0 0 0-.488-2.167c-.365-.798-.901-1.333-1.679-1.333a.5.5 0 0 1-.5-.5zM6 2.5c-1.197 0-2.167.97-2.167 2.167S4.804 6.833 6 6.833a2.17 2.17 0 0 0 2.167-2.167C8.167 3.469 7.197 2.5 6 2.5zM2.834 4.667C2.834 2.918 4.251 1.5 6 1.5a3.17 3.17 0 0 1 3.167 3.167c0 1.749-1.418 3.166-3.167 3.166S2.834 6.416 2.834 4.667zm7.348-2.704a.5.5 0 0 1 .608-.36c.681.174 1.285.571 1.716 1.126a3.17 3.17 0 0 1 0 3.884 3.16 3.16 0 0 1-1.716 1.126.5.5 0 0 1-.248-.969c.466-.119.879-.39 1.174-.77s.455-.847.455-1.329-.16-.949-.455-1.329-.708-.651-1.174-.77a.5.5 0 0 1-.36-.608z"/></svg>