<?xml version="1.0" standalone="no"?>
<!DOCTYPE svg PUBLIC "-//W3C//DTD SVG 20010904//EN"
 "http://www.w3.org/TR/2001/REC-SVG-20010904/DTD/svg10.dtd">
<svg version="1.0" xmlns="http://www.w3.org/2000/svg"
 width="896.000000pt" height="896.000000pt" viewBox="0 0 896.000000 896.000000"
 preserveAspectRatio="xMidYMid meet">
<metadata>
Created by potrace 1.11, written by Peter Selinger 2001-2013
</metadata>
<g transform="translate(0.000000,896.000000) scale(0.100000,-0.100000)"
fill="#000000" stroke="none">
<path d="M4397 7765 c-32 -19 -60 -35 -62 -35 -2 0 -53 -29 -114 -65 -60 -36
-114 -65 -120 -65 -5 0 -11 -4 -13 -8 -1 -4 -34 -26 -73 -47 -38 -22 -78 -44
-87 -50 -66 -39 -245 -141 -253 -144 -5 -2 -12 -7 -15 -10 -3 -3 -19 -13 -35
-22 -17 -8 -104 -59 -195 -111 -181 -105 -223 -129 -290 -167 -25 -14 -46 -29
-48 -33 -2 -4 -8 -8 -14 -8 -5 0 -63 -31 -129 -70 -66 -38 -124 -70 -130 -70
-5 0 -9 -4 -9 -9 0 -5 -8 -12 -19 -16 -10 -3 -107 -57 -215 -120 -108 -63
-201 -115 -206 -115 -6 0 -10 -4 -10 -9 0 -5 -8 -11 -17 -14 -10 -3 -40 -19
-68 -35 -27 -16 -120 -70 -205 -119 -85 -49 -213 -124 -285 -165 -71 -41 -188
-109 -260 -150 -71 -41 -191 -110 -265 -153 -74 -43 -151 -87 -170 -98 -19
-10 -72 -41 -118 -68 -45 -27 -87 -49 -92 -49 -6 0 -10 -3 -10 -8 0 -4 -17
-15 -37 -25 -21 -10 -67 -36 -103 -58 -36 -22 -74 -44 -85 -49 -11 -6 -27 -14
-35 -20 -30 -19 -270 -158 -365 -210 -33 -18 -67 -38 -75 -44 -15 -11 -25 -17
-115 -67 -27 -16 -49 -34 -47 -41 2 -7 44 -81 93 -165 49 -84 89 -157 89 -163
0 -5 5 -10 10 -10 6 0 10 -4 10 -10 0 -5 14 -33 32 -62 86 -146 278 -483 278
-490 0 -4 5 -8 10 -8 6 0 10 -6 10 -12 0 -7 7 -21 14 -31 14 -18 17 -17 73 14
32 17 70 40 85 50 14 11 28 19 31 19 5 0 162 90 207 119 14 8 27 16 30 16 3 0
16 8 30 16 61 39 203 119 211 119 5 0 9 4 9 8 0 5 16 14 35 22 19 8 35 17 35
21 0 4 8 9 18 12 9 4 44 22 77 42 33 19 69 39 80 45 11 5 27 14 35 20 16 11
218 128 290 168 25 14 57 33 72 43 14 11 28 19 31 19 2 0 82 45 177 100 95 55
175 100 177 100 3 0 17 8 31 19 15 10 47 29 72 43 25 14 95 54 156 90 61 36
117 68 125 71 8 4 28 16 44 27 17 11 37 23 45 27 16 7 379 216 417 239 13 8
24 13 25 12 2 -2 17 7 35 20 17 12 36 22 41 22 6 0 12 4 14 8 2 5 28 22 58 39
30 17 159 90 285 163 127 73 246 142 265 153 19 11 49 28 65 38 17 10 41 24
55 32 14 7 70 40 125 72 55 32 120 69 145 83 25 14 78 45 118 69 41 24 77 43
80 43 4 0 54 -27 112 -61 58 -33 134 -77 170 -96 36 -20 72 -41 80 -47 15 -11
25 -17 106 -62 24 -13 93 -53 154 -89 61 -36 113 -65 116 -65 2 0 21 -11 42
-23 20 -13 51 -32 67 -43 17 -10 32 -19 35 -19 3 0 50 -27 105 -59 190 -112
260 -152 275 -159 8 -4 29 -16 45 -27 17 -11 41 -24 54 -30 13 -6 35 -19 50
-29 14 -10 51 -32 81 -49 120 -65 155 -86 158 -94 2 -4 7 -8 12 -8 5 0 46 -22
92 -48 46 -26 90 -51 98 -55 8 -4 29 -16 45 -27 17 -10 46 -27 65 -37 19 -9
37 -20 40 -23 12 -14 61 -40 75 -40 8 0 15 -4 15 -8 0 -5 15 -16 33 -25 17 -9
52 -28 77 -43 25 -15 88 -51 140 -81 52 -30 102 -58 110 -63 20 -12 411 -238
464 -269 22 -13 55 -32 71 -41 176 -102 287 -166 320 -185 22 -12 163 -93 313
-180 305 -176 275 -168 322 -77 14 26 27 49 31 52 3 3 12 19 21 35 25 50 53
100 58 105 8 8 26 39 61 105 17 33 37 67 43 75 7 8 36 58 66 110 68 122 73
130 163 285 l76 130 -47 29 c-26 16 -67 40 -92 54 -25 14 -57 32 -72 41 -15 9
-78 45 -140 81 -62 36 -122 71 -133 77 -11 7 -28 16 -37 19 -10 3 -18 10 -18
15 0 5 -4 9 -10 9 -8 0 -281 154 -440 248 -19 12 -49 28 -67 37 l-31 17 -1
781 c0 430 0 789 0 797 -1 13 -70 15 -568 15 l-567 0 0 -460 c-1 -298 -5 -461
-11 -462 -5 -1 -46 19 -90 44 -44 25 -111 64 -150 86 -38 22 -82 48 -97 58
-15 11 -29 19 -32 19 -2 0 -37 19 -78 43 -40 24 -93 55 -118 69 -25 14 -63 36
-85 48 -22 13 -62 36 -90 52 -27 16 -57 33 -65 38 -20 12 -384 221 -435 250
-22 12 -52 31 -67 41 -14 11 -29 19 -33 19 -3 0 -60 32 -125 70 -65 39 -123
70 -129 70 -6 0 -11 4 -11 9 0 5 -17 16 -37 25 -21 9 -103 55 -182 101 -79 47
-148 85 -153 85 -4 0 -8 5 -8 10 0 6 -4 10 -9 10 -6 0 -60 29 -121 65 -61 36
-112 65 -113 65 -1 0 -28 -16 -60 -35z"/>
<path d="M6694 4529 c1 -198 -1 -363 -3 -365 -2 -2 -32 23 -65 56 -34 33 -85
78 -115 100 -57 43 -169 111 -186 114 -5 1 -17 6 -25 11 -8 5 -17 10 -20 10
-3 1 -36 12 -75 24 -38 13 -83 25 -100 27 -16 2 -37 7 -45 10 -46 17 -283 23
-385 10 -76 -10 -79 -11 -92 -19 -7 -5 -13 -6 -13 -3 0 3 -24 -2 -52 -11 -29
-9 -59 -16 -65 -16 -7 0 -13 -4 -13 -9 0 -4 -7 -8 -16 -8 -20 0 -178 -79 -182
-91 -2 -5 -8 -9 -13 -9 -28 0 -201 -153 -283 -250 -53 -63 -171 -258 -181
-300 -1 -3 -8 -18 -15 -35 -7 -16 -14 -32 -15 -35 -1 -3 -4 -12 -8 -20 -14
-36 -48 -150 -53 -176 -3 -15 -7 -31 -9 -35 -3 -4 -7 -24 -10 -45 -4 -22 -8
-46 -10 -54 -9 -29 -19 -104 -32 -235 -10 -88 -10 -470 -1 -550 27 -229 56
-381 93 -478 8 -20 15 -38 14 -40 0 -2 6 -23 23 -72 57 -164 186 -390 290
-509 51 -59 174 -165 214 -186 16 -8 31 -17 34 -20 12 -12 151 -72 210 -90 59
-18 89 -24 160 -36 14 -3 79 -6 145 -8 148 -4 236 6 355 42 30 9 57 17 60 17
3 1 19 8 35 15 17 7 32 14 35 14 19 5 70 32 70 38 0 5 6 8 14 8 43 0 267 209
345 323 8 12 27 35 41 50 l26 28 0 -230 c-1 -149 2 -232 9 -232 5 -1 243 -2
527 -3 l516 -1 1 1481 0 1481 -22 12 c-12 6 -35 20 -52 31 -16 11 -37 23 -45
27 -8 4 -50 29 -92 55 -43 26 -82 48 -88 48 -5 0 -10 4 -10 9 0 5 -8 11 -17
14 -10 3 -106 60 -213 127 -107 66 -204 124 -215 129 -11 5 -37 21 -58 35 -21
14 -42 26 -47 26 -6 0 -10 5 -10 10 0 6 -4 10 -10 10 -5 0 -61 32 -125 70 -64
39 -119 70 -124 70 -4 0 -7 -162 -7 -361z m-376 -930 c91 -29 172 -89 251
-184 64 -78 125 -281 126 -422 0 -18 2 -33 5 -33 13 0 -2 -275 -21 -385 -18
-105 -81 -275 -101 -275 -4 0 -8 -6 -8 -14 0 -20 -119 -128 -169 -154 -65 -34
-152 -51 -234 -46 -178 11 -335 157 -395 369 -35 122 -46 219 -46 395 0 154
10 249 38 375 41 184 157 325 308 375 59 19 186 19 246 -1z"/>
<path d="M2597 4535 c-1 -2 -38 -5 -82 -9 -44 -3 -89 -8 -100 -10 -11 -2 -40
-7 -65 -11 -65 -11 -69 -11 -140 -30 -90 -23 -244 -77 -248 -87 -2 -4 -9 -8
-16 -8 -7 0 -35 -12 -62 -26 -365 -193 -631 -531 -744 -944 -15 -58 -31 -123
-34 -145 -4 -22 -8 -47 -11 -55 -19 -65 -27 -473 -13 -615 14 -136 75 -395 99
-419 5 -6 9 -17 9 -26 0 -48 162 -340 241 -436 190 -228 366 -354 608 -433 52
-17 109 -34 125 -37 17 -3 47 -9 66 -14 31 -8 54 -11 165 -26 171 -23 654 -23
761 0 12 2 45 7 75 11 30 3 61 8 69 10 8 2 31 7 50 10 19 3 73 17 120 31 47
13 92 26 101 28 25 7 136 55 176 77 80 45 153 92 153 100 0 4 9 10 19 14 27 8
198 178 263 260 65 84 125 173 164 246 16 29 35 60 42 68 20 21 4 28 -73 36
-38 3 -83 8 -100 11 -16 2 -57 7 -90 9 -64 5 -131 12 -205 20 -25 3 -72 7
-105 10 -33 3 -80 8 -105 11 -46 6 -78 9 -185 18 -33 3 -78 8 -100 11 -80 12
-135 13 -135 5 0 -15 -186 -200 -201 -200 -7 0 -20 -6 -28 -14 -15 -13 -89
-41 -136 -52 -142 -34 -280 -18 -400 45 -54 29 -178 144 -195 182 -6 13 -20
40 -30 59 -22 40 -51 128 -64 192 -4 16 -9 40 -12 55 -3 16 -6 44 -7 63 l-2
34 1120 0 c616 0 1123 4 1126 8 7 11 3 277 -6 393 -14 175 -25 266 -32 278 -2
4 -7 24 -9 45 -3 20 -9 53 -14 72 -5 19 -11 47 -14 62 -2 14 -9 36 -16 47 -6
12 -9 21 -6 21 3 0 -4 26 -15 58 -131 384 -389 685 -719 835 -184 84 -376 131
-635 153 -74 6 -392 13 -398 9z m328 -745 c109 -32 214 -109 268 -196 61 -100
122 -306 122 -414 l0 -35 -550 0 -550 0 1 25 c2 14 3 26 4 28 2 1 3 10 4 20 5
52 20 123 37 176 10 34 18 65 18 70 0 5 3 12 8 15 5 3 14 19 21 34 22 50 103
151 153 190 55 43 143 85 197 93 20 3 39 8 41 10 8 8 188 -5 226 -16z"/>
</g>
</svg>
